<svg width="389" height="852" viewBox="0 0 389 852" fill="none" xmlns="http://www.w3.org/2000/svg">
<g filter="url(#filter0_d_54_65)">
<g clip-path="url(#clip0_54_65)">
<circle cx="173.5" cy="623.5" r="7.5" fill="#0C38D2"/>
<circle cx="194.5" cy="623.5" r="7.5" fill="#E4E4E4"/>
<circle cx="215.5" cy="623.5" r="7.5" fill="#E4E4E4"/>
<path d="M99.1725 408.94V421.54C99.1725 422.8 99.4825 423.77 100.102 424.45C100.722 425.13 101.632 425.47 102.832 425.47C104.032 425.47 104.952 425.13 105.592 424.45C106.232 423.77 106.552 422.8 106.552 421.54V408.94H111.682V421.51C111.682 423.39 111.282 424.98 110.482 426.28C109.682 427.58 108.602 428.56 107.242 429.22C105.902 429.88 104.402 430.21 102.742 430.21C101.082 430.21 99.5925 429.89 98.2725 429.25C96.9725 428.59 95.9425 427.61 95.1825 426.31C94.4225 424.99 94.0425 423.39 94.0425 421.51V408.94H99.1725ZM136.645 413.08C138.725 413.08 140.375 413.71 141.595 414.97C142.835 416.23 143.455 417.98 143.455 420.22V430H138.355V420.91C138.355 419.83 138.065 419 137.485 418.42C136.925 417.82 136.145 417.52 135.145 417.52C134.145 417.52 133.355 417.82 132.775 418.42C132.215 419 131.935 419.83 131.935 420.91V430H126.835V420.91C126.835 419.83 126.545 419 125.965 418.42C125.405 417.82 124.625 417.52 123.625 417.52C122.625 417.52 121.835 417.82 121.255 418.42C120.695 419 120.415 419.83 120.415 420.91V430H115.285V413.26H120.415V415.36C120.935 414.66 121.615 414.11 122.455 413.71C123.295 413.29 124.245 413.08 125.305 413.08C126.565 413.08 127.685 413.35 128.665 413.89C129.665 414.43 130.445 415.2 131.005 416.2C131.585 415.28 132.375 414.53 133.375 413.95C134.375 413.37 135.465 413.08 136.645 413.08ZM155.95 411.52C155.05 411.52 154.31 411.26 153.73 410.74C153.17 410.2 152.89 409.54 152.89 408.76C152.89 407.96 153.17 407.3 153.73 406.78C154.31 406.24 155.05 405.97 155.95 405.97C156.83 405.97 157.55 406.24 158.11 406.78C158.69 407.3 158.98 407.96 158.98 408.76C158.98 409.54 158.69 410.2 158.11 410.74C157.55 411.26 156.83 411.52 155.95 411.52ZM158.53 432.16C158.53 434.22 158.01 435.7 156.97 436.6C155.93 437.52 154.48 437.98 152.62 437.98H150.61V433.63H151.84C152.4 433.63 152.8 433.52 153.04 433.3C153.28 433.08 153.4 432.72 153.4 432.22V413.26H158.53V432.16ZM177.998 421.36C177.998 421.84 177.968 422.34 177.908 422.86H166.298C166.378 423.9 166.708 424.7 167.288 425.26C167.888 425.8 168.618 426.07 169.478 426.07C170.758 426.07 171.648 425.53 172.148 424.45H177.608C177.328 425.55 176.818 426.54 176.078 427.42C175.358 428.3 174.448 428.99 173.348 429.49C172.248 429.99 171.018 430.24 169.658 430.24C168.018 430.24 166.558 429.89 165.278 429.19C163.998 428.49 162.998 427.49 162.278 426.19C161.558 424.89 161.198 423.37 161.198 421.63C161.198 419.89 161.548 418.37 162.248 417.07C162.968 415.77 163.968 414.77 165.248 414.07C166.528 413.37 167.998 413.02 169.658 413.02C171.278 413.02 172.718 413.36 173.978 414.04C175.238 414.72 176.218 415.69 176.918 416.95C177.638 418.21 177.998 419.68 177.998 421.36ZM172.748 420.01C172.748 419.13 172.448 418.43 171.848 417.91C171.248 417.39 170.498 417.13 169.598 417.13C168.738 417.13 168.008 417.38 167.408 417.88C166.828 418.38 166.468 419.09 166.328 420.01H172.748ZM183.285 411.52C182.385 411.52 181.645 411.26 181.065 410.74C180.505 410.2 180.225 409.54 180.225 408.76C180.225 407.96 180.505 407.3 181.065 406.78C181.645 406.24 182.385 405.97 183.285 405.97C184.165 405.97 184.885 406.24 185.445 406.78C186.025 407.3 186.315 407.96 186.315 408.76C186.315 409.54 186.025 410.2 185.445 410.74C184.885 411.26 184.165 411.52 183.285 411.52ZM185.835 413.26V430H180.705V413.26H185.835ZM198.882 425.65V430H196.272C194.412 430 192.962 429.55 191.922 428.65C190.882 427.73 190.362 426.24 190.362 424.18V417.52H188.322V413.26H190.362V409.18H195.492V413.26H198.852V417.52H195.492V424.24C195.492 424.74 195.612 425.1 195.852 425.32C196.092 425.54 196.492 425.65 197.052 425.65H198.882ZM209.36 430.24C207.72 430.24 206.24 429.89 204.92 429.19C203.62 428.49 202.59 427.49 201.83 426.19C201.09 424.89 200.72 423.37 200.72 421.63C200.72 419.91 201.1 418.4 201.86 417.1C202.62 415.78 203.66 414.77 204.98 414.07C206.3 413.37 207.78 413.02 209.42 413.02C211.06 413.02 212.54 413.37 213.86 414.07C215.18 414.77 216.22 415.78 216.98 417.1C217.74 418.4 218.12 419.91 218.12 421.63C218.12 423.35 217.73 424.87 216.95 426.19C216.19 427.49 215.14 428.49 213.8 429.19C212.48 429.89 211 430.24 209.36 430.24ZM209.36 425.8C210.34 425.8 211.17 425.44 211.85 424.72C212.55 424 212.9 422.97 212.9 421.63C212.9 420.29 212.56 419.26 211.88 418.54C211.22 417.82 210.4 417.46 209.42 417.46C208.42 417.46 207.59 417.82 206.93 418.54C206.27 419.24 205.94 420.27 205.94 421.63C205.94 422.97 206.26 424 206.9 424.72C207.56 425.44 208.38 425.8 209.36 425.8ZM235.599 417.52H232.839V430H227.709V417.52H225.849V413.26H227.709V412.78C227.709 410.72 228.299 409.16 229.479 408.1C230.659 407.02 232.389 406.48 234.669 406.48C235.049 406.48 235.329 406.49 235.509 406.51V410.86C234.529 410.8 233.839 410.94 233.439 411.28C233.039 411.62 232.839 412.23 232.839 413.11V413.26H235.599V417.52ZM236.989 421.6C236.989 419.88 237.309 418.37 237.949 417.07C238.609 415.77 239.499 414.77 240.619 414.07C241.739 413.37 242.989 413.02 244.369 413.02C245.549 413.02 246.579 413.26 247.459 413.74C248.359 414.22 249.049 414.85 249.529 415.63V413.26H254.659V430H249.529V427.63C249.029 428.41 248.329 429.04 247.429 429.52C246.549 430 245.519 430.24 244.339 430.24C242.979 430.24 241.739 429.89 240.619 429.19C239.499 428.47 238.609 427.46 237.949 426.16C237.309 424.84 236.989 423.32 236.989 421.6ZM249.529 421.63C249.529 420.35 249.169 419.34 248.449 418.6C247.749 417.86 246.889 417.49 245.869 417.49C244.849 417.49 243.979 417.86 243.259 418.6C242.559 419.32 242.209 420.32 242.209 421.6C242.209 422.88 242.559 423.9 243.259 424.66C243.979 425.4 244.849 425.77 245.869 425.77C246.889 425.77 247.749 425.4 248.449 424.66C249.169 423.92 249.529 422.91 249.529 421.63ZM249.919 409.09L242.689 412.12V408.58L249.919 405.1V409.09ZM257.351 421.63C257.351 419.89 257.701 418.37 258.401 417.07C259.121 415.77 260.111 414.77 261.371 414.07C262.651 413.37 264.111 413.02 265.751 413.02C267.851 413.02 269.601 413.57 271.001 414.67C272.421 415.77 273.351 417.32 273.791 419.32H268.331C267.871 418.04 266.981 417.4 265.661 417.4C264.721 417.4 263.971 417.77 263.411 418.51C262.851 419.23 262.571 420.27 262.571 421.63C262.571 422.99 262.851 424.04 263.411 424.78C263.971 425.5 264.721 425.86 265.661 425.86C266.981 425.86 267.871 425.22 268.331 423.94H273.791C273.351 425.9 272.421 427.44 271.001 428.56C269.581 429.68 267.831 430.24 265.751 430.24C264.111 430.24 262.651 429.89 261.371 429.19C260.111 428.49 259.121 427.49 258.401 426.19C257.701 424.89 257.351 423.37 257.351 421.63ZM279.115 411.52C278.215 411.52 277.475 411.26 276.895 410.74C276.335 410.2 276.055 409.54 276.055 408.76C276.055 407.96 276.335 407.3 276.895 406.78C277.475 406.24 278.215 405.97 279.115 405.97C279.995 405.97 280.715 406.24 281.275 406.78C281.855 407.3 282.145 407.96 282.145 408.76C282.145 409.54 281.855 410.2 281.275 410.74C280.715 411.26 279.995 411.52 279.115 411.52ZM281.665 413.26V430H276.535V413.26H281.665ZM290.512 407.8V430H285.382V407.8H290.512ZM51.5548 466.6C51.5548 464.88 51.8748 463.37 52.5148 462.07C53.1748 460.77 54.0648 459.77 55.1848 459.07C56.3048 458.37 57.5548 458.02 58.9348 458.02C60.0348 458.02 61.0348 458.25 61.9348 458.71C62.8548 459.17 63.5748 459.79 64.0948 460.57V452.8H69.2248V475H64.0948V472.6C63.6148 473.4 62.9248 474.04 62.0248 474.52C61.1448 475 60.1148 475.24 58.9348 475.24C57.5548 475.24 56.3048 474.89 55.1848 474.19C54.0648 473.47 53.1748 472.46 52.5148 471.16C51.8748 469.84 51.5548 468.32 51.5548 466.6ZM64.0948 466.63C64.0948 465.35 63.7348 464.34 63.0148 463.6C62.3148 462.86 61.4548 462.49 60.4348 462.49C59.4148 462.49 58.5448 462.86 57.8248 463.6C57.1248 464.32 56.7748 465.32 56.7748 466.6C56.7748 467.88 57.1248 468.9 57.8248 469.66C58.5448 470.4 59.4148 470.77 60.4348 470.77C61.4548 470.77 62.3148 470.4 63.0148 469.66C63.7348 468.92 64.0948 467.91 64.0948 466.63ZM88.7162 466.36C88.7162 466.84 88.6862 467.34 88.6262 467.86H77.0162C77.0962 468.9 77.4262 469.7 78.0062 470.26C78.6062 470.8 79.3362 471.07 80.1962 471.07C81.4762 471.07 82.3662 470.53 82.8662 469.45H88.3262C88.0462 470.55 87.5362 471.54 86.7962 472.42C86.0762 473.3 85.1662 473.99 84.0662 474.49C82.9662 474.99 81.7362 475.24 80.3762 475.24C78.7362 475.24 77.2762 474.89 75.9962 474.19C74.7162 473.49 73.7162 472.49 72.9962 471.19C72.2762 469.89 71.9162 468.37 71.9162 466.63C71.9162 464.89 72.2662 463.37 72.9662 462.07C73.6862 460.77 74.6862 459.77 75.9662 459.07C77.2462 458.37 78.7162 458.02 80.3762 458.02C81.9962 458.02 83.4362 458.36 84.6962 459.04C85.9562 459.72 86.9362 460.69 87.6362 461.95C88.3562 463.21 88.7162 464.68 88.7162 466.36ZM83.4662 465.01C83.4662 464.13 83.1662 463.43 82.5662 462.91C81.9662 462.39 81.2162 462.13 80.3162 462.13C79.4562 462.13 78.7262 462.38 78.1262 462.88C77.5462 463.38 77.1862 464.09 77.0462 465.01H83.4662ZM102.91 452.8V475H97.7799V452.8H102.91ZM105.608 466.6C105.608 464.88 105.928 463.37 106.568 462.07C107.228 460.77 108.118 459.77 109.238 459.07C110.358 458.37 111.608 458.02 112.988 458.02C114.168 458.02 115.198 458.26 116.078 458.74C116.978 459.22 117.668 459.85 118.148 460.63V458.26H123.278V475H118.148V472.63C117.648 473.41 116.948 474.04 116.048 474.52C115.168 475 114.138 475.24 112.958 475.24C111.598 475.24 110.358 474.89 109.238 474.19C108.118 473.47 107.228 472.46 106.568 471.16C105.928 469.84 105.608 468.32 105.608 466.6ZM118.148 466.63C118.148 465.35 117.788 464.34 117.068 463.6C116.368 462.86 115.508 462.49 114.488 462.49C113.468 462.49 112.598 462.86 111.878 463.6C111.178 464.32 110.828 465.32 110.828 466.6C110.828 467.88 111.178 468.9 111.878 469.66C112.598 470.4 113.468 470.77 114.488 470.77C115.508 470.77 116.368 470.4 117.068 469.66C117.788 468.92 118.148 467.91 118.148 466.63ZM134.519 470.2L138.149 458.26H143.609L137.669 475H131.339L125.399 458.26H130.889L134.519 470.2ZM144.748 466.6C144.748 464.88 145.068 463.37 145.708 462.07C146.368 460.77 147.258 459.77 148.378 459.07C149.498 458.37 150.748 458.02 152.128 458.02C153.308 458.02 154.338 458.26 155.218 458.74C156.118 459.22 156.808 459.85 157.288 460.63V458.26H162.418V475H157.288V472.63C156.788 473.41 156.088 474.04 155.188 474.52C154.308 475 153.278 475.24 152.098 475.24C150.738 475.24 149.498 474.89 148.378 474.19C147.258 473.47 146.368 472.46 145.708 471.16C145.068 469.84 144.748 468.32 144.748 466.6ZM157.288 466.63C157.288 465.35 156.928 464.34 156.208 463.6C155.508 462.86 154.648 462.49 153.628 462.49C152.608 462.49 151.738 462.86 151.018 463.6C150.318 464.32 149.968 465.32 149.968 466.6C149.968 467.88 150.318 468.9 151.018 469.66C151.738 470.4 152.608 470.77 153.628 470.77C154.648 470.77 155.508 470.4 156.208 469.66C156.928 468.92 157.288 467.91 157.288 466.63ZM171.26 461.05C171.86 460.13 172.61 459.41 173.51 458.89C174.41 458.35 175.41 458.08 176.51 458.08V463.51H175.1C173.82 463.51 172.86 463.79 172.22 464.35C171.58 464.89 171.26 465.85 171.26 467.23V475H166.13V458.26H171.26V461.05ZM192.129 475.24C190.669 475.24 189.369 474.99 188.229 474.49C187.089 473.99 186.189 473.31 185.529 472.45C184.869 471.57 184.499 470.59 184.419 469.51H189.489C189.549 470.09 189.819 470.56 190.299 470.92C190.779 471.28 191.369 471.46 192.069 471.46C192.709 471.46 193.199 471.34 193.539 471.1C193.899 470.84 194.079 470.51 194.079 470.11C194.079 469.63 193.829 469.28 193.329 469.06C192.829 468.82 192.019 468.56 190.899 468.28C189.699 468 188.699 467.71 187.899 467.41C187.099 467.09 186.409 466.6 185.829 465.94C185.249 465.26 184.959 464.35 184.959 463.21C184.959 462.25 185.219 461.38 185.739 460.6C186.279 459.8 187.059 459.17 188.079 458.71C189.119 458.25 190.349 458.02 191.769 458.02C193.869 458.02 195.519 458.54 196.719 459.58C197.939 460.62 198.639 462 198.819 463.72H194.079C193.999 463.14 193.739 462.68 193.299 462.34C192.879 462 192.319 461.83 191.619 461.83C191.019 461.83 190.559 461.95 190.239 462.19C189.919 462.41 189.759 462.72 189.759 463.12C189.759 463.6 190.009 463.96 190.509 464.2C191.029 464.44 191.829 464.68 192.909 464.92C194.149 465.24 195.159 465.56 195.939 465.88C196.719 466.18 197.399 466.68 197.979 467.38C198.579 468.06 198.889 468.98 198.909 470.14C198.909 471.12 198.629 472 198.069 472.78C197.529 473.54 196.739 474.14 195.699 474.58C194.679 475.02 193.489 475.24 192.129 475.24ZM217.827 466.36C217.827 466.84 217.798 467.34 217.738 467.86H206.128C206.208 468.9 206.538 469.7 207.118 470.26C207.718 470.8 208.448 471.07 209.308 471.07C210.588 471.07 211.478 470.53 211.978 469.45H217.438C217.158 470.55 216.648 471.54 215.908 472.42C215.188 473.3 214.278 473.99 213.178 474.49C212.078 474.99 210.848 475.24 209.488 475.24C207.848 475.24 206.388 474.89 205.108 474.19C203.828 473.49 202.828 472.49 202.108 471.19C201.388 469.89 201.028 468.37 201.028 466.63C201.028 464.89 201.378 463.37 202.078 462.07C202.798 460.77 203.798 459.77 205.078 459.07C206.358 458.37 207.828 458.02 209.488 458.02C211.108 458.02 212.548 458.36 213.808 459.04C215.068 459.72 216.048 460.69 216.748 461.95C217.468 463.21 217.827 464.68 217.827 466.36ZM212.578 465.01C212.578 464.13 212.278 463.43 211.678 462.91C211.078 462.39 210.328 462.13 209.428 462.13C208.568 462.13 207.838 462.38 207.238 462.88C206.658 463.38 206.298 464.09 206.158 465.01H212.578ZM237.064 458.26V475H231.934V472.72C231.414 473.46 230.704 474.06 229.804 474.52C228.924 474.96 227.944 475.18 226.864 475.18C225.584 475.18 224.454 474.9 223.474 474.34C222.494 473.76 221.734 472.93 221.194 471.85C220.654 470.77 220.384 469.5 220.384 468.04V458.26H225.484V467.35C225.484 468.47 225.774 469.34 226.354 469.96C226.934 470.58 227.714 470.89 228.694 470.89C229.694 470.89 230.484 470.58 231.064 469.96C231.644 469.34 231.934 468.47 231.934 467.35V458.26H237.064ZM39.7315 505.14C38.8115 505.14 37.9848 504.98 37.2515 504.66C36.5315 504.327 35.9648 503.873 35.5515 503.3C35.1382 502.713 34.9248 502.04 34.9115 501.28H36.8515C36.9182 501.933 37.1848 502.487 37.6515 502.94C38.1315 503.38 38.8248 503.6 39.7315 503.6C40.5982 503.6 41.2782 503.387 41.7715 502.96C42.2782 502.52 42.5315 501.96 42.5315 501.28C42.5315 500.747 42.3848 500.313 42.0915 499.98C41.7982 499.647 41.4315 499.393 40.9915 499.22C40.5515 499.047 39.9582 498.86 39.2115 498.66C38.2915 498.42 37.5515 498.18 36.9915 497.94C36.4448 497.7 35.9715 497.327 35.5715 496.82C35.1848 496.3 34.9915 495.607 34.9915 494.74C34.9915 493.98 35.1848 493.307 35.5715 492.72C35.9582 492.133 36.4982 491.68 37.1915 491.36C37.8982 491.04 38.7048 490.88 39.6115 490.88C40.9182 490.88 41.9848 491.207 42.8115 491.86C43.6515 492.513 44.1248 493.38 44.2315 494.46H42.2315C42.1648 493.927 41.8848 493.46 41.3915 493.06C40.8982 492.647 40.2448 492.44 39.4315 492.44C38.6715 492.44 38.0515 492.64 37.5715 493.04C37.0915 493.427 36.8515 493.973 36.8515 494.68C36.8515 495.187 36.9915 495.6 37.2715 495.92C37.5648 496.24 37.9182 496.487 38.3315 496.66C38.7582 496.82 39.3515 497.007 40.1115 497.22C41.0315 497.473 41.7715 497.727 42.3315 497.98C42.8915 498.22 43.3715 498.6 43.7715 499.12C44.1715 499.627 44.3715 500.32 44.3715 501.2C44.3715 501.88 44.1915 502.52 43.8315 503.12C43.4715 503.72 42.9382 504.207 42.2315 504.58C41.5248 504.953 40.6915 505.14 39.7315 505.14ZM57.0498 499.1C57.0498 499.447 57.0298 499.813 56.9898 500.2H48.2298C48.2964 501.28 48.6631 502.127 49.3298 502.74C50.0098 503.34 50.8298 503.64 51.7898 503.64C52.5764 503.64 53.2298 503.46 53.7498 503.1C54.2831 502.727 54.6564 502.233 54.8698 501.62H56.8298C56.5364 502.673 55.9498 503.533 55.0698 504.2C54.1898 504.853 53.0964 505.18 51.7898 505.18C50.7498 505.18 49.8164 504.947 48.9898 504.48C48.1764 504.013 47.5364 503.353 47.0698 502.5C46.6031 501.633 46.3698 500.633 46.3698 499.5C46.3698 498.367 46.5964 497.373 47.0498 496.52C47.5031 495.667 48.1364 495.013 48.9498 494.56C49.7764 494.093 50.7231 493.86 51.7898 493.86C52.8298 493.86 53.7498 494.087 54.5498 494.54C55.3498 494.993 55.9631 495.62 56.3898 496.42C56.8298 497.207 57.0498 498.1 57.0498 499.1ZM55.1698 498.72C55.1698 498.027 55.0164 497.433 54.7098 496.94C54.4031 496.433 53.9831 496.053 53.4498 495.8C52.9298 495.533 52.3498 495.4 51.7098 495.4C50.7898 495.4 50.0031 495.693 49.3498 496.28C48.7098 496.867 48.3431 497.68 48.2498 498.72H55.1698ZM72.6321 493.84C73.4854 493.84 74.2454 494.02 74.9121 494.38C75.5788 494.727 76.1054 495.253 76.4921 495.96C76.8788 496.667 77.0721 497.527 77.0721 498.54V505H75.2721V498.8C75.2721 497.707 74.9988 496.873 74.4521 496.3C73.9188 495.713 73.1921 495.42 72.2721 495.42C71.3254 495.42 70.5721 495.727 70.0121 496.34C69.4521 496.94 69.1721 497.813 69.1721 498.96V505H67.3721V498.8C67.3721 497.707 67.0988 496.873 66.5521 496.3C66.0188 495.713 65.2921 495.42 64.3721 495.42C63.4254 495.42 62.6721 495.727 62.1121 496.34C61.5521 496.94 61.2721 497.813 61.2721 498.96V505H59.4521V494.04H61.2721V495.62C61.6321 495.047 62.1121 494.607 62.7121 494.3C63.3254 493.993 63.9988 493.84 64.7321 493.84C65.6521 493.84 66.4654 494.047 67.1721 494.46C67.8788 494.873 68.4054 495.48 68.7521 496.28C69.0588 495.507 69.5654 494.907 70.2721 494.48C70.9788 494.053 71.7654 493.84 72.6321 493.84ZM87.2096 496.06C87.5696 495.433 88.1029 494.913 88.8096 494.5C89.5296 494.073 90.3629 493.86 91.3096 493.86C92.2829 493.86 93.1629 494.093 93.9496 494.56C94.7496 495.027 95.3763 495.687 95.8296 496.54C96.2829 497.38 96.5096 498.36 96.5096 499.48C96.5096 500.587 96.2829 501.573 95.8296 502.44C95.3763 503.307 94.7496 503.98 93.9496 504.46C93.1629 504.94 92.2829 505.18 91.3096 505.18C90.3763 505.18 89.5496 504.973 88.8296 504.56C88.1229 504.133 87.5829 503.607 87.2096 502.98V510.2H85.3896V494.04H87.2096V496.06ZM94.6496 499.48C94.6496 498.653 94.4829 497.933 94.1496 497.32C93.8163 496.707 93.3629 496.24 92.7896 495.92C92.2296 495.6 91.6096 495.44 90.9296 495.44C90.2629 495.44 89.6429 495.607 89.0696 495.94C88.5096 496.26 88.0563 496.733 87.7096 497.36C87.3763 497.973 87.2096 498.687 87.2096 499.5C87.2096 500.327 87.3763 501.053 87.7096 501.68C88.0563 502.293 88.5096 502.767 89.0696 503.1C89.6429 503.42 90.2629 503.58 90.9296 503.58C91.6096 503.58 92.2296 503.42 92.7896 503.1C93.3629 502.767 93.8163 502.293 94.1496 501.68C94.4829 501.053 94.6496 500.32 94.6496 499.48ZM100.725 495.82C101.045 495.193 101.499 494.707 102.085 494.36C102.685 494.013 103.412 493.84 104.265 493.84V495.72H103.785C101.745 495.72 100.725 496.827 100.725 499.04V505H98.9052V494.04H100.725V495.82ZM116.366 499.1C116.366 499.447 116.346 499.813 116.306 500.2H107.546C107.613 501.28 107.98 502.127 108.646 502.74C109.326 503.34 110.146 503.64 111.106 503.64C111.893 503.64 112.546 503.46 113.066 503.1C113.6 502.727 113.973 502.233 114.186 501.62H116.146C115.853 502.673 115.266 503.533 114.386 504.2C113.506 504.853 112.413 505.18 111.106 505.18C110.066 505.18 109.133 504.947 108.306 504.48C107.493 504.013 106.853 503.353 106.386 502.5C105.92 501.633 105.686 500.633 105.686 499.5C105.686 498.367 105.913 497.373 106.366 496.52C106.82 495.667 107.453 495.013 108.266 494.56C109.093 494.093 110.04 493.86 111.106 493.86C112.146 493.86 113.066 494.087 113.866 494.54C114.666 494.993 115.28 495.62 115.706 496.42C116.146 497.207 116.366 498.1 116.366 499.1ZM114.486 498.72C114.486 498.027 114.333 497.433 114.026 496.94C113.72 496.433 113.3 496.053 112.766 495.8C112.246 495.533 111.666 495.4 111.026 495.4C110.106 495.4 109.32 495.693 108.666 496.28C108.026 496.867 107.66 497.68 107.566 498.72H114.486ZM118.089 499.5C118.089 498.367 118.315 497.38 118.769 496.54C119.222 495.687 119.849 495.027 120.649 494.56C121.462 494.093 122.389 493.86 123.429 493.86C124.775 493.86 125.882 494.187 126.749 494.84C127.629 495.493 128.209 496.4 128.489 497.56H126.529C126.342 496.893 125.975 496.367 125.429 495.98C124.895 495.593 124.229 495.4 123.429 495.4C122.389 495.4 121.549 495.76 120.909 496.48C120.269 497.187 119.949 498.193 119.949 499.5C119.949 500.82 120.269 501.84 120.909 502.56C121.549 503.28 122.389 503.64 123.429 503.64C124.229 503.64 124.895 503.453 125.429 503.08C125.962 502.707 126.329 502.173 126.529 501.48H128.489C128.195 502.6 127.609 503.5 126.729 504.18C125.849 504.847 124.749 505.18 123.429 505.18C122.389 505.18 121.462 504.947 120.649 504.48C119.849 504.013 119.222 503.353 118.769 502.5C118.315 501.647 118.089 500.647 118.089 499.5ZM131.857 492.26C131.51 492.26 131.217 492.14 130.977 491.9C130.737 491.66 130.617 491.367 130.617 491.02C130.617 490.673 130.737 490.38 130.977 490.14C131.217 489.9 131.51 489.78 131.857 489.78C132.19 489.78 132.47 489.9 132.697 490.14C132.937 490.38 133.057 490.673 133.057 491.02C133.057 491.367 132.937 491.66 132.697 491.9C132.47 492.14 132.19 492.26 131.857 492.26ZM132.737 494.04V505H130.917V494.04H132.737ZM139.719 505.18C138.879 505.18 138.125 505.04 137.459 504.76C136.792 504.467 136.265 504.067 135.879 503.56C135.492 503.04 135.279 502.447 135.239 501.78H137.119C137.172 502.327 137.425 502.773 137.879 503.12C138.345 503.467 138.952 503.64 139.699 503.64C140.392 503.64 140.939 503.487 141.339 503.18C141.739 502.873 141.939 502.487 141.939 502.02C141.939 501.54 141.725 501.187 141.299 500.96C140.872 500.72 140.212 500.487 139.319 500.26C138.505 500.047 137.839 499.833 137.319 499.62C136.812 499.393 136.372 499.067 135.999 498.64C135.639 498.2 135.459 497.627 135.459 496.92C135.459 496.36 135.625 495.847 135.959 495.38C136.292 494.913 136.765 494.547 137.379 494.28C137.992 494 138.692 493.86 139.479 493.86C140.692 493.86 141.672 494.167 142.419 494.78C143.165 495.393 143.565 496.233 143.619 497.3H141.799C141.759 496.727 141.525 496.267 141.099 495.92C140.685 495.573 140.125 495.4 139.419 495.4C138.765 495.4 138.245 495.54 137.859 495.82C137.472 496.1 137.279 496.467 137.279 496.92C137.279 497.28 137.392 497.58 137.619 497.82C137.859 498.047 138.152 498.233 138.499 498.38C138.859 498.513 139.352 498.667 139.979 498.84C140.765 499.053 141.405 499.267 141.899 499.48C142.392 499.68 142.812 499.987 143.159 500.4C143.519 500.813 143.705 501.353 143.719 502.02C143.719 502.62 143.552 503.16 143.219 503.64C142.885 504.12 142.412 504.5 141.799 504.78C141.199 505.047 140.505 505.18 139.719 505.18ZM145.608 499.48C145.608 498.36 145.835 497.38 146.288 496.54C146.741 495.687 147.361 495.027 148.148 494.56C148.948 494.093 149.835 493.86 150.808 493.86C151.768 493.86 152.601 494.067 153.308 494.48C154.015 494.893 154.541 495.413 154.888 496.04V494.04H156.728V505H154.888V502.96C154.528 503.6 153.988 504.133 153.268 504.56C152.561 504.973 151.735 505.18 150.788 505.18C149.815 505.18 148.935 504.94 148.148 504.46C147.361 503.98 146.741 503.307 146.288 502.44C145.835 501.573 145.608 500.587 145.608 499.48ZM154.888 499.5C154.888 498.673 154.721 497.953 154.388 497.34C154.055 496.727 153.601 496.26 153.028 495.94C152.468 495.607 151.848 495.44 151.168 495.44C150.488 495.44 149.868 495.6 149.308 495.92C148.748 496.24 148.301 496.707 147.968 497.32C147.635 497.933 147.468 498.653 147.468 499.48C147.468 500.32 147.635 501.053 147.968 501.68C148.301 502.293 148.748 502.767 149.308 503.1C149.868 503.42 150.488 503.58 151.168 503.58C151.848 503.58 152.468 503.42 153.028 503.1C153.601 502.767 154.055 502.293 154.388 501.68C154.721 501.053 154.888 500.327 154.888 499.5ZM161.624 495.82C161.944 495.193 162.397 494.707 162.984 494.36C163.584 494.013 164.31 493.84 165.164 493.84V495.72H164.684C162.644 495.72 161.624 496.827 161.624 499.04V505H159.804V494.04H161.624V495.82ZM176.477 505.18C175.637 505.18 174.883 505.04 174.217 504.76C173.55 504.467 173.023 504.067 172.637 503.56C172.25 503.04 172.037 502.447 171.997 501.78H173.877C173.93 502.327 174.183 502.773 174.637 503.12C175.103 503.467 175.71 503.64 176.457 503.64C177.15 503.64 177.697 503.487 178.097 503.18C178.497 502.873 178.697 502.487 178.697 502.02C178.697 501.54 178.483 501.187 178.057 500.96C177.63 500.72 176.97 500.487 176.077 500.26C175.263 500.047 174.597 499.833 174.077 499.62C173.57 499.393 173.13 499.067 172.757 498.64C172.397 498.2 172.217 497.627 172.217 496.92C172.217 496.36 172.383 495.847 172.717 495.38C173.05 494.913 173.523 494.547 174.137 494.28C174.75 494 175.45 493.86 176.237 493.86C177.45 493.86 178.43 494.167 179.177 494.78C179.923 495.393 180.323 496.233 180.377 497.3H178.557C178.517 496.727 178.283 496.267 177.857 495.92C177.443 495.573 176.883 495.4 176.177 495.4C175.523 495.4 175.003 495.54 174.617 495.82C174.23 496.1 174.037 496.467 174.037 496.92C174.037 497.28 174.15 497.58 174.377 497.82C174.617 498.047 174.91 498.233 175.257 498.38C175.617 498.513 176.11 498.667 176.737 498.84C177.523 499.053 178.163 499.267 178.657 499.48C179.15 499.68 179.57 499.987 179.917 500.4C180.277 500.813 180.463 501.353 180.477 502.02C180.477 502.62 180.31 503.16 179.977 503.64C179.643 504.12 179.17 504.5 178.557 504.78C177.957 505.047 177.263 505.18 176.477 505.18ZM182.366 499.48C182.366 498.36 182.593 497.38 183.046 496.54C183.499 495.687 184.119 495.027 184.906 494.56C185.706 494.093 186.593 493.86 187.566 493.86C188.526 493.86 189.359 494.067 190.066 494.48C190.773 494.893 191.299 495.413 191.646 496.04V494.04H193.486V505H191.646V502.96C191.286 503.6 190.746 504.133 190.026 504.56C189.319 504.973 188.493 505.18 187.546 505.18C186.573 505.18 185.693 504.94 184.906 504.46C184.119 503.98 183.499 503.307 183.046 502.44C182.593 501.573 182.366 500.587 182.366 499.48ZM191.646 499.5C191.646 498.673 191.479 497.953 191.146 497.34C190.813 496.727 190.359 496.26 189.786 495.94C189.226 495.607 188.606 495.44 187.926 495.44C187.246 495.44 186.626 495.6 186.066 495.92C185.506 496.24 185.059 496.707 184.726 497.32C184.393 497.933 184.226 498.653 184.226 499.48C184.226 500.32 184.393 501.053 184.726 501.68C185.059 502.293 185.506 502.767 186.066 503.1C186.626 503.42 187.246 503.58 187.926 503.58C188.606 503.58 189.226 503.42 189.786 503.1C190.359 502.767 190.813 502.293 191.146 501.68C191.479 501.053 191.646 500.327 191.646 499.5ZM197.501 492.26C197.155 492.26 196.861 492.14 196.621 491.9C196.381 491.66 196.261 491.367 196.261 491.02C196.261 490.673 196.381 490.38 196.621 490.14C196.861 489.9 197.155 489.78 197.501 489.78C197.835 489.78 198.115 489.9 198.341 490.14C198.581 490.38 198.701 490.673 198.701 491.02C198.701 491.367 198.581 491.66 198.341 491.9C198.115 492.14 197.835 492.26 197.501 492.26ZM198.381 494.04V505H196.561V494.04H198.381ZM203.303 495.82C203.623 495.193 204.077 494.707 204.663 494.36C205.263 494.013 205.99 493.84 206.843 493.84V495.72H206.363C204.323 495.72 203.303 496.827 203.303 499.04V505H201.483V494.04H203.303V495.82ZM213.596 499.48C213.596 498.36 213.823 497.38 214.276 496.54C214.73 495.687 215.35 495.027 216.136 494.56C216.936 494.093 217.83 493.86 218.816 493.86C219.67 493.86 220.463 494.06 221.196 494.46C221.93 494.847 222.49 495.36 222.876 496V490.2H224.716V505H222.876V502.94C222.516 503.593 221.983 504.133 221.276 504.56C220.57 504.973 219.743 505.18 218.796 505.18C217.823 505.18 216.936 504.94 216.136 504.46C215.35 503.98 214.73 503.307 214.276 502.44C213.823 501.573 213.596 500.587 213.596 499.48ZM222.876 499.5C222.876 498.673 222.71 497.953 222.376 497.34C222.043 496.727 221.59 496.26 221.016 495.94C220.456 495.607 219.836 495.44 219.156 495.44C218.476 495.44 217.856 495.6 217.296 495.92C216.736 496.24 216.29 496.707 215.956 497.32C215.623 497.933 215.456 498.653 215.456 499.48C215.456 500.32 215.623 501.053 215.956 501.68C216.29 502.293 216.736 502.767 217.296 503.1C217.856 503.42 218.476 503.58 219.156 503.58C219.836 503.58 220.456 503.42 221.016 503.1C221.59 502.767 222.043 502.293 222.376 501.68C222.71 501.053 222.876 500.327 222.876 499.5ZM237.792 499.1C237.792 499.447 237.772 499.813 237.732 500.2H228.972C229.039 501.28 229.405 502.127 230.072 502.74C230.752 503.34 231.572 503.64 232.532 503.64C233.319 503.64 233.972 503.46 234.492 503.1C235.025 502.727 235.399 502.233 235.612 501.62H237.572C237.279 502.673 236.692 503.533 235.812 504.2C234.932 504.853 233.839 505.18 232.532 505.18C231.492 505.18 230.559 504.947 229.732 504.48C228.919 504.013 228.279 503.353 227.812 502.5C227.345 501.633 227.112 500.633 227.112 499.5C227.112 498.367 227.339 497.373 227.792 496.52C228.245 495.667 228.879 495.013 229.692 494.56C230.519 494.093 231.465 493.86 232.532 493.86C233.572 493.86 234.492 494.087 235.292 494.54C236.092 494.993 236.705 495.62 237.132 496.42C237.572 497.207 237.792 498.1 237.792 499.1ZM235.912 498.72C235.912 498.027 235.759 497.433 235.452 496.94C235.145 496.433 234.725 496.053 234.192 495.8C233.672 495.533 233.092 495.4 232.452 495.4C231.532 495.4 230.745 495.693 230.092 496.28C229.452 496.867 229.085 497.68 228.992 498.72H235.912ZM244.846 499.5C244.846 498.367 245.073 497.38 245.526 496.54C245.98 495.687 246.606 495.027 247.406 494.56C248.22 494.093 249.146 493.86 250.186 493.86C251.533 493.86 252.64 494.187 253.506 494.84C254.386 495.493 254.966 496.4 255.246 497.56H253.286C253.1 496.893 252.733 496.367 252.186 495.98C251.653 495.593 250.986 495.4 250.186 495.4C249.146 495.4 248.306 495.76 247.666 496.48C247.026 497.187 246.706 498.193 246.706 499.5C246.706 500.82 247.026 501.84 247.666 502.56C248.306 503.28 249.146 503.64 250.186 503.64C250.986 503.64 251.653 503.453 252.186 503.08C252.72 502.707 253.086 502.173 253.286 501.48H255.246C254.953 502.6 254.366 503.5 253.486 504.18C252.606 504.847 251.506 505.18 250.186 505.18C249.146 505.18 248.22 504.947 247.406 504.48C246.606 504.013 245.98 503.353 245.526 502.5C245.073 501.647 244.846 500.647 244.846 499.5ZM256.995 499.48C256.995 498.36 257.221 497.38 257.675 496.54C258.128 495.687 258.748 495.027 259.535 494.56C260.335 494.093 261.221 493.86 262.195 493.86C263.155 493.86 263.988 494.067 264.695 494.48C265.401 494.893 265.928 495.413 266.275 496.04V494.04H268.115V505H266.275V502.96C265.915 503.6 265.375 504.133 264.655 504.56C263.948 504.973 263.121 505.18 262.175 505.18C261.201 505.18 260.321 504.94 259.535 504.46C258.748 503.98 258.128 503.307 257.675 502.44C257.221 501.573 256.995 500.587 256.995 499.48ZM266.275 499.5C266.275 498.673 266.108 497.953 265.775 497.34C265.441 496.727 264.988 496.26 264.415 495.94C263.855 495.607 263.235 495.44 262.555 495.44C261.875 495.44 261.255 495.6 260.695 495.92C260.135 496.24 259.688 496.707 259.355 497.32C259.021 497.933 258.855 498.653 258.855 499.48C258.855 500.32 259.021 501.053 259.355 501.68C259.688 502.293 260.135 502.767 260.695 503.1C261.255 503.42 261.875 503.58 262.555 503.58C263.235 503.58 263.855 503.42 264.415 503.1C264.988 502.767 265.441 502.293 265.775 501.68C266.108 501.053 266.275 500.327 266.275 499.5ZM275.07 505.18C274.23 505.18 273.477 505.04 272.81 504.76C272.144 504.467 271.617 504.067 271.23 503.56C270.844 503.04 270.63 502.447 270.59 501.78H272.47C272.524 502.327 272.777 502.773 273.23 503.12C273.697 503.467 274.304 503.64 275.05 503.64C275.744 503.64 276.29 503.487 276.69 503.18C277.09 502.873 277.29 502.487 277.29 502.02C277.29 501.54 277.077 501.187 276.65 500.96C276.224 500.72 275.564 500.487 274.67 500.26C273.857 500.047 273.19 499.833 272.67 499.62C272.164 499.393 271.724 499.067 271.35 498.64C270.99 498.2 270.81 497.627 270.81 496.92C270.81 496.36 270.977 495.847 271.31 495.38C271.644 494.913 272.117 494.547 272.73 494.28C273.344 494 274.044 493.86 274.83 493.86C276.044 493.86 277.024 494.167 277.77 494.78C278.517 495.393 278.917 496.233 278.97 497.3H277.15C277.11 496.727 276.877 496.267 276.45 495.92C276.037 495.573 275.477 495.4 274.77 495.4C274.117 495.4 273.597 495.54 273.21 495.82C272.824 496.1 272.63 496.467 272.63 496.92C272.63 497.28 272.744 497.58 272.97 497.82C273.21 498.047 273.504 498.233 273.85 498.38C274.21 498.513 274.704 498.667 275.33 498.84C276.117 499.053 276.757 499.267 277.25 499.48C277.744 499.68 278.164 499.987 278.51 500.4C278.87 500.813 279.057 501.353 279.07 502.02C279.07 502.62 278.904 503.16 278.57 503.64C278.237 504.12 277.764 504.5 277.15 504.78C276.55 505.047 275.857 505.18 275.07 505.18ZM280.96 499.48C280.96 498.36 281.186 497.38 281.64 496.54C282.093 495.687 282.713 495.027 283.5 494.56C284.3 494.093 285.186 493.86 286.16 493.86C287.12 493.86 287.953 494.067 288.66 494.48C289.366 494.893 289.893 495.413 290.24 496.04V494.04H292.08V505H290.24V502.96C289.88 503.6 289.34 504.133 288.62 504.56C287.913 504.973 287.086 505.18 286.14 505.18C285.166 505.18 284.286 504.94 283.5 504.46C282.713 503.98 282.093 503.307 281.64 502.44C281.186 501.573 280.96 500.587 280.96 499.48ZM290.24 499.5C290.24 498.673 290.073 497.953 289.74 497.34C289.406 496.727 288.953 496.26 288.38 495.94C287.82 495.607 287.2 495.44 286.52 495.44C285.84 495.44 285.22 495.6 284.66 495.92C284.1 496.24 283.653 496.707 283.32 497.32C282.986 497.933 282.82 498.653 282.82 499.48C282.82 500.32 282.986 501.053 283.32 501.68C283.653 502.293 284.1 502.767 284.66 503.1C285.22 503.42 285.84 503.58 286.52 503.58C287.2 503.58 287.82 503.42 288.38 503.1C288.953 502.767 289.406 502.293 289.74 501.68C290.073 501.053 290.24 500.327 290.24 499.5ZM302.307 496.08C302.681 495.427 303.227 494.893 303.947 494.48C304.667 494.067 305.487 493.86 306.407 493.86C307.394 493.86 308.281 494.093 309.067 494.56C309.854 495.027 310.474 495.687 310.927 496.54C311.381 497.38 311.607 498.36 311.607 499.48C311.607 500.587 311.381 501.573 310.927 502.44C310.474 503.307 309.847 503.98 309.047 504.46C308.261 504.94 307.381 505.18 306.407 505.18C305.461 505.18 304.627 504.973 303.907 504.56C303.201 504.147 302.667 503.62 302.307 502.98V505H300.487V490.2H302.307V496.08ZM309.747 499.48C309.747 498.653 309.581 497.933 309.247 497.32C308.914 496.707 308.461 496.24 307.887 495.92C307.327 495.6 306.707 495.44 306.027 495.44C305.361 495.44 304.741 495.607 304.167 495.94C303.607 496.26 303.154 496.733 302.807 497.36C302.474 497.973 302.307 498.687 302.307 499.5C302.307 500.327 302.474 501.053 302.807 501.68C303.154 502.293 303.607 502.767 304.167 503.1C304.741 503.42 305.361 503.58 306.027 503.58C306.707 503.58 307.327 503.42 307.887 503.1C308.461 502.767 308.914 502.293 309.247 501.68C309.581 501.053 309.747 500.32 309.747 499.48ZM313.323 499.48C313.323 498.36 313.55 497.38 314.003 496.54C314.456 495.687 315.076 495.027 315.863 494.56C316.663 494.093 317.55 493.86 318.523 493.86C319.483 493.86 320.316 494.067 321.023 494.48C321.73 494.893 322.256 495.413 322.603 496.04V494.04H324.443V505H322.603V502.96C322.243 503.6 321.703 504.133 320.983 504.56C320.276 504.973 319.45 505.18 318.503 505.18C317.53 505.18 316.65 504.94 315.863 504.46C315.076 503.98 314.456 503.307 314.003 502.44C313.55 501.573 313.323 500.587 313.323 499.48ZM322.603 499.5C322.603 498.673 322.436 497.953 322.103 497.34C321.77 496.727 321.316 496.26 320.743 495.94C320.183 495.607 319.563 495.44 318.883 495.44C318.203 495.44 317.583 495.6 317.023 495.92C316.463 496.24 316.016 496.707 315.683 497.32C315.35 497.933 315.183 498.653 315.183 499.48C315.183 500.32 315.35 501.053 315.683 501.68C316.016 502.293 316.463 502.767 317.023 503.1C317.583 503.42 318.203 503.58 318.883 503.58C319.563 503.58 320.183 503.42 320.743 503.1C321.316 502.767 321.77 502.293 322.103 501.68C322.436 501.053 322.603 500.327 322.603 499.5ZM331.399 505.18C330.559 505.18 329.805 505.04 329.139 504.76C328.472 504.467 327.945 504.067 327.559 503.56C327.172 503.04 326.959 502.447 326.919 501.78H328.799C328.852 502.327 329.105 502.773 329.559 503.12C330.025 503.467 330.632 503.64 331.379 503.64C332.072 503.64 332.619 503.487 333.019 503.18C333.419 502.873 333.619 502.487 333.619 502.02C333.619 501.54 333.405 501.187 332.979 500.96C332.552 500.72 331.892 500.487 330.999 500.26C330.185 500.047 329.519 499.833 328.999 499.62C328.492 499.393 328.052 499.067 327.679 498.64C327.319 498.2 327.139 497.627 327.139 496.92C327.139 496.36 327.305 495.847 327.639 495.38C327.972 494.913 328.445 494.547 329.059 494.28C329.672 494 330.372 493.86 331.159 493.86C332.372 493.86 333.352 494.167 334.099 494.78C334.845 495.393 335.245 496.233 335.299 497.3H333.479C333.439 496.727 333.205 496.267 332.779 495.92C332.365 495.573 331.805 495.4 331.099 495.4C330.445 495.4 329.925 495.54 329.539 495.82C329.152 496.1 328.959 496.467 328.959 496.92C328.959 497.28 329.072 497.58 329.299 497.82C329.539 498.047 329.832 498.233 330.179 498.38C330.539 498.513 331.032 498.667 331.659 498.84C332.445 499.053 333.085 499.267 333.579 499.48C334.072 499.68 334.492 499.987 334.839 500.4C335.199 500.813 335.385 501.353 335.399 502.02C335.399 502.62 335.232 503.16 334.899 503.64C334.565 504.12 334.092 504.5 333.479 504.78C332.879 505.047 332.185 505.18 331.399 505.18ZM340.188 495.54V502C340.188 502.533 340.301 502.913 340.528 503.14C340.754 503.353 341.148 503.46 341.708 503.46H343.048V505H341.408C340.394 505 339.634 504.767 339.128 504.3C338.621 503.833 338.368 503.067 338.368 502V495.54H336.948V494.04H338.368V491.28H340.188V494.04H343.048V495.54H340.188ZM344.573 499.48C344.573 498.36 344.8 497.38 345.253 496.54C345.706 495.687 346.326 495.027 347.113 494.56C347.913 494.093 348.8 493.86 349.773 493.86C350.733 493.86 351.566 494.067 352.273 494.48C352.98 494.893 353.506 495.413 353.853 496.04V494.04H355.693V505H353.853V502.96C353.493 503.6 352.953 504.133 352.233 504.56C351.526 504.973 350.7 505.18 349.753 505.18C348.78 505.18 347.9 504.94 347.113 504.46C346.326 503.98 345.706 503.307 345.253 502.44C344.8 501.573 344.573 500.587 344.573 499.48ZM353.853 499.5C353.853 498.673 353.686 497.953 353.353 497.34C353.02 496.727 352.566 496.26 351.993 495.94C351.433 495.607 350.813 495.44 350.133 495.44C349.453 495.44 348.833 495.6 348.273 495.92C347.713 496.24 347.266 496.707 346.933 497.32C346.6 497.933 346.433 498.653 346.433 499.48C346.433 500.32 346.6 501.053 346.933 501.68C347.266 502.293 347.713 502.767 348.273 503.1C348.833 503.42 349.453 503.58 350.133 503.58C350.813 503.58 351.433 503.42 351.993 503.1C352.566 502.767 353.02 502.293 353.353 501.68C353.686 501.053 353.853 500.327 353.853 499.5ZM108.919 529.5C108.919 528.367 109.145 527.38 109.599 526.54C110.052 525.687 110.679 525.027 111.479 524.56C112.292 524.093 113.219 523.86 114.259 523.86C115.605 523.86 116.712 524.187 117.579 524.84C118.459 525.493 119.039 526.4 119.319 527.56H117.359C117.172 526.893 116.805 526.367 116.259 525.98C115.725 525.593 115.059 525.4 114.259 525.4C113.219 525.4 112.379 525.76 111.739 526.48C111.099 527.187 110.779 528.193 110.779 529.5C110.779 530.82 111.099 531.84 111.739 532.56C112.379 533.28 113.219 533.64 114.259 533.64C115.059 533.64 115.725 533.453 116.259 533.08C116.792 532.707 117.159 532.173 117.359 531.48H119.319C119.025 532.6 118.439 533.5 117.559 534.18C116.679 534.847 115.579 535.18 114.259 535.18C113.219 535.18 112.292 534.947 111.479 534.48C110.679 534.013 110.052 533.353 109.599 532.5C109.145 531.647 108.919 530.647 108.919 529.5ZM127.187 523.84C128.014 523.84 128.76 524.02 129.427 524.38C130.094 524.727 130.614 525.253 130.987 525.96C131.374 526.667 131.567 527.527 131.567 528.54V535H129.767V528.8C129.767 527.707 129.494 526.873 128.947 526.3C128.4 525.713 127.654 525.42 126.707 525.42C125.747 525.42 124.98 525.72 124.407 526.32C123.847 526.92 123.567 527.793 123.567 528.94V535H121.747V520.2H123.567V525.6C123.927 525.04 124.42 524.607 125.047 524.3C125.687 523.993 126.4 523.84 127.187 523.84ZM133.86 529.48C133.86 528.36 134.087 527.38 134.54 526.54C134.993 525.687 135.613 525.027 136.4 524.56C137.2 524.093 138.087 523.86 139.06 523.86C140.02 523.86 140.853 524.067 141.56 524.48C142.267 524.893 142.793 525.413 143.14 526.04V524.04H144.98V535H143.14V532.96C142.78 533.6 142.24 534.133 141.52 534.56C140.813 534.973 139.987 535.18 139.04 535.18C138.067 535.18 137.187 534.94 136.4 534.46C135.613 533.98 134.993 533.307 134.54 532.44C134.087 531.573 133.86 530.587 133.86 529.48ZM143.14 529.5C143.14 528.673 142.973 527.953 142.64 527.34C142.307 526.727 141.853 526.26 141.28 525.94C140.72 525.607 140.1 525.44 139.42 525.44C138.74 525.44 138.12 525.6 137.56 525.92C137 526.24 136.553 526.707 136.22 527.32C135.887 527.933 135.72 528.653 135.72 529.48C135.72 530.32 135.887 531.053 136.22 531.68C136.553 532.293 137 532.767 137.56 533.1C138.12 533.42 138.74 533.58 139.42 533.58C140.1 533.58 140.72 533.42 141.28 533.1C141.853 532.767 142.307 532.293 142.64 531.68C142.973 531.053 143.14 530.327 143.14 529.5ZM161.236 523.84C162.089 523.84 162.849 524.02 163.516 524.38C164.182 524.727 164.709 525.253 165.096 525.96C165.482 526.667 165.676 527.527 165.676 528.54V535H163.876V528.8C163.876 527.707 163.602 526.873 163.056 526.3C162.522 525.713 161.796 525.42 160.876 525.42C159.929 525.42 159.176 525.727 158.616 526.34C158.056 526.94 157.776 527.813 157.776 528.96V535H155.976V528.8C155.976 527.707 155.702 526.873 155.156 526.3C154.622 525.713 153.896 525.42 152.976 525.42C152.029 525.42 151.276 525.727 150.716 526.34C150.156 526.94 149.876 527.813 149.876 528.96V535H148.056V524.04H149.876V525.62C150.236 525.047 150.716 524.607 151.316 524.3C151.929 523.993 152.602 523.84 153.336 523.84C154.256 523.84 155.069 524.047 155.776 524.46C156.482 524.873 157.009 525.48 157.356 526.28C157.662 525.507 158.169 524.907 158.876 524.48C159.582 524.053 160.369 523.84 161.236 523.84ZM167.981 529.48C167.981 528.36 168.208 527.38 168.661 526.54C169.114 525.687 169.734 525.027 170.521 524.56C171.321 524.093 172.208 523.86 173.181 523.86C174.141 523.86 174.974 524.067 175.681 524.48C176.388 524.893 176.914 525.413 177.261 526.04V524.04H179.101V535H177.261V532.96C176.901 533.6 176.361 534.133 175.641 534.56C174.934 534.973 174.108 535.18 173.161 535.18C172.188 535.18 171.308 534.94 170.521 534.46C169.734 533.98 169.114 533.307 168.661 532.44C168.208 531.573 167.981 530.587 167.981 529.48ZM177.261 529.5C177.261 528.673 177.094 527.953 176.761 527.34C176.428 526.727 175.974 526.26 175.401 525.94C174.841 525.607 174.221 525.44 173.541 525.44C172.861 525.44 172.241 525.6 171.681 525.92C171.121 526.24 170.674 526.707 170.341 527.32C170.008 527.933 169.841 528.653 169.841 529.48C169.841 530.32 170.008 531.053 170.341 531.68C170.674 532.293 171.121 532.767 171.681 533.1C172.241 533.42 172.861 533.58 173.541 533.58C174.221 533.58 174.841 533.42 175.401 533.1C175.974 532.767 176.428 532.293 176.761 531.68C177.094 531.053 177.261 530.327 177.261 529.5ZM183.997 525.82C184.317 525.193 184.77 524.707 185.357 524.36C185.957 524.013 186.683 523.84 187.537 523.84V525.72H187.057C185.017 525.72 183.997 526.827 183.997 529.04V535H182.177V524.04H183.997V525.82ZM196.79 526.06C197.15 525.433 197.683 524.913 198.39 524.5C199.11 524.073 199.943 523.86 200.89 523.86C201.863 523.86 202.743 524.093 203.53 524.56C204.33 525.027 204.956 525.687 205.41 526.54C205.863 527.38 206.09 528.36 206.09 529.48C206.09 530.587 205.863 531.573 205.41 532.44C204.956 533.307 204.33 533.98 203.53 534.46C202.743 534.94 201.863 535.18 200.89 535.18C199.956 535.18 199.13 534.973 198.41 534.56C197.703 534.133 197.163 533.607 196.79 532.98V540.2H194.97V524.04H196.79V526.06ZM204.23 529.48C204.23 528.653 204.063 527.933 203.73 527.32C203.396 526.707 202.943 526.24 202.37 525.92C201.81 525.6 201.19 525.44 200.51 525.44C199.843 525.44 199.223 525.607 198.65 525.94C198.09 526.26 197.636 526.733 197.29 527.36C196.956 527.973 196.79 528.687 196.79 529.5C196.79 530.327 196.956 531.053 197.29 531.68C197.636 532.293 198.09 532.767 198.65 533.1C199.223 533.42 199.843 533.58 200.51 533.58C201.19 533.58 201.81 533.42 202.37 533.1C202.943 532.767 203.396 532.293 203.73 531.68C204.063 531.053 204.23 530.32 204.23 529.48ZM218.485 529.1C218.485 529.447 218.465 529.813 218.425 530.2H209.665C209.732 531.28 210.099 532.127 210.765 532.74C211.445 533.34 212.265 533.64 213.225 533.64C214.012 533.64 214.665 533.46 215.185 533.1C215.719 532.727 216.092 532.233 216.305 531.62H218.265C217.972 532.673 217.385 533.533 216.505 534.2C215.625 534.853 214.532 535.18 213.225 535.18C212.185 535.18 211.252 534.947 210.425 534.48C209.612 534.013 208.972 533.353 208.505 532.5C208.039 531.633 207.805 530.633 207.805 529.5C207.805 528.367 208.032 527.373 208.485 526.52C208.939 525.667 209.572 525.013 210.385 524.56C211.212 524.093 212.159 523.86 213.225 523.86C214.265 523.86 215.185 524.087 215.985 524.54C216.785 524.993 217.399 525.62 217.825 526.42C218.265 527.207 218.485 528.1 218.485 529.1ZM216.605 528.72C216.605 528.027 216.452 527.433 216.145 526.94C215.839 526.433 215.419 526.053 214.885 525.8C214.365 525.533 213.785 525.4 213.145 525.4C212.225 525.4 211.439 525.693 210.785 526.28C210.145 526.867 209.779 527.68 209.685 528.72H216.605ZM222.708 520.2V535H220.888V520.2H222.708ZM230.59 535.18C229.563 535.18 228.63 534.947 227.79 534.48C226.963 534.013 226.31 533.353 225.83 532.5C225.363 531.633 225.13 530.633 225.13 529.5C225.13 528.38 225.37 527.393 225.85 526.54C226.343 525.673 227.01 525.013 227.85 524.56C228.69 524.093 229.63 523.86 230.67 523.86C231.71 523.86 232.65 524.093 233.49 524.56C234.33 525.013 234.99 525.667 235.47 526.52C235.963 527.373 236.21 528.367 236.21 529.5C236.21 530.633 235.956 531.633 235.45 532.5C234.956 533.353 234.283 534.013 233.43 534.48C232.576 534.947 231.63 535.18 230.59 535.18ZM230.59 533.58C231.243 533.58 231.856 533.427 232.43 533.12C233.003 532.813 233.463 532.353 233.81 531.74C234.17 531.127 234.35 530.38 234.35 529.5C234.35 528.62 234.176 527.873 233.83 527.26C233.483 526.647 233.03 526.193 232.47 525.9C231.91 525.593 231.303 525.44 230.65 525.44C229.983 525.44 229.37 525.593 228.81 525.9C228.263 526.193 227.823 526.647 227.49 527.26C227.156 527.873 226.99 528.62 226.99 529.5C226.99 530.393 227.15 531.147 227.47 531.76C227.803 532.373 228.243 532.833 228.79 533.14C229.336 533.433 229.936 533.58 230.59 533.58ZM243.255 529.48C243.255 528.36 243.481 527.38 243.935 526.54C244.388 525.687 245.008 525.027 245.795 524.56C246.595 524.093 247.481 523.86 248.455 523.86C249.415 523.86 250.248 524.067 250.955 524.48C251.661 524.893 252.188 525.413 252.535 526.04V524.04H254.375V535H252.535V532.96C252.175 533.6 251.635 534.133 250.915 534.56C250.208 534.973 249.381 535.18 248.435 535.18C247.461 535.18 246.581 534.94 245.795 534.46C245.008 533.98 244.388 533.307 243.935 532.44C243.481 531.573 243.255 530.587 243.255 529.48ZM252.535 529.5C252.535 528.673 252.368 527.953 252.035 527.34C251.701 526.727 251.248 526.26 250.675 525.94C250.115 525.607 249.495 525.44 248.815 525.44C248.135 525.44 247.515 525.6 246.955 525.92C246.395 526.24 245.948 526.707 245.615 527.32C245.281 527.933 245.115 528.653 245.115 529.48C245.115 530.32 245.281 531.053 245.615 531.68C245.948 532.293 246.395 532.767 246.955 533.1C247.515 533.42 248.135 533.58 248.815 533.58C249.495 533.58 250.115 533.42 250.675 533.1C251.248 532.767 251.701 532.293 252.035 531.68C252.368 531.053 252.535 530.327 252.535 529.5ZM259.27 526.06C259.63 525.433 260.163 524.913 260.87 524.5C261.59 524.073 262.423 523.86 263.37 523.86C264.343 523.86 265.223 524.093 266.01 524.56C266.81 525.027 267.437 525.687 267.89 526.54C268.343 527.38 268.57 528.36 268.57 529.48C268.57 530.587 268.343 531.573 267.89 532.44C267.437 533.307 266.81 533.98 266.01 534.46C265.223 534.94 264.343 535.18 263.37 535.18C262.437 535.18 261.61 534.973 260.89 534.56C260.183 534.133 259.643 533.607 259.27 532.98V540.2H257.45V524.04H259.27V526.06ZM266.71 529.48C266.71 528.653 266.543 527.933 266.21 527.32C265.877 526.707 265.423 526.24 264.85 525.92C264.29 525.6 263.67 525.44 262.99 525.44C262.323 525.44 261.703 525.607 261.13 525.94C260.57 526.26 260.117 526.733 259.77 527.36C259.437 527.973 259.27 528.687 259.27 529.5C259.27 530.327 259.437 531.053 259.77 531.68C260.117 532.293 260.57 532.767 261.13 533.1C261.703 533.42 262.323 533.58 262.99 533.58C263.67 533.58 264.29 533.42 264.85 533.1C265.423 532.767 265.877 532.293 266.21 531.68C266.543 531.053 266.71 530.32 266.71 529.48ZM272.786 526.06C273.146 525.433 273.679 524.913 274.386 524.5C275.106 524.073 275.939 523.86 276.886 523.86C277.859 523.86 278.739 524.093 279.526 524.56C280.326 525.027 280.952 525.687 281.406 526.54C281.859 527.38 282.086 528.36 282.086 529.48C282.086 530.587 281.859 531.573 281.406 532.44C280.952 533.307 280.326 533.98 279.526 534.46C278.739 534.94 277.859 535.18 276.886 535.18C275.952 535.18 275.126 534.973 274.406 534.56C273.699 534.133 273.159 533.607 272.786 532.98V540.2H270.966V524.04H272.786V526.06ZM280.226 529.48C280.226 528.653 280.059 527.933 279.726 527.32C279.392 526.707 278.939 526.24 278.366 525.92C277.806 525.6 277.186 525.44 276.506 525.44C275.839 525.44 275.219 525.607 274.646 525.94C274.086 526.26 273.632 526.733 273.286 527.36C272.952 527.973 272.786 528.687 272.786 529.5C272.786 530.327 272.952 531.053 273.286 531.68C273.632 532.293 274.086 532.767 274.646 533.1C275.219 533.42 275.839 533.58 276.506 533.58C277.186 533.58 277.806 533.42 278.366 533.1C278.939 532.767 279.392 532.293 279.726 531.68C280.059 531.053 280.226 530.32 280.226 529.48Z" fill="black"/>
<path d="M246.086 466.63C246.086 464.89 246.436 463.37 247.136 462.07C247.856 460.77 248.846 459.77 250.106 459.07C251.386 458.37 252.846 458.02 254.486 458.02C256.586 458.02 258.336 458.57 259.736 459.67C261.156 460.77 262.086 462.32 262.526 464.32H257.066C256.606 463.04 255.716 462.4 254.396 462.4C253.456 462.4 252.706 462.77 252.146 463.51C251.586 464.23 251.306 465.27 251.306 466.63C251.306 467.99 251.586 469.04 252.146 469.78C252.706 470.5 253.456 470.86 254.396 470.86C255.716 470.86 256.606 470.22 257.066 468.94H262.526C262.086 470.9 261.156 472.44 259.736 473.56C258.316 474.68 256.566 475.24 254.486 475.24C252.846 475.24 251.386 474.89 250.106 474.19C248.846 473.49 247.856 472.49 247.136 471.19C246.436 469.89 246.086 468.37 246.086 466.63ZM264.25 466.6C264.25 464.88 264.57 463.37 265.21 462.07C265.87 460.77 266.76 459.77 267.88 459.07C269 458.37 270.25 458.02 271.63 458.02C272.81 458.02 273.84 458.26 274.72 458.74C275.62 459.22 276.31 459.85 276.79 460.63V458.26H281.92V475H276.79V472.63C276.29 473.41 275.59 474.04 274.69 474.52C273.81 475 272.78 475.24 271.6 475.24C270.24 475.24 269 474.89 267.88 474.19C266.76 473.47 265.87 472.46 265.21 471.16C264.57 469.84 264.25 468.32 264.25 466.6ZM276.79 466.63C276.79 465.35 276.43 464.34 275.71 463.6C275.01 462.86 274.15 462.49 273.13 462.49C272.11 462.49 271.24 462.86 270.52 463.6C269.82 464.32 269.47 465.32 269.47 466.6C269.47 467.88 269.82 468.9 270.52 469.66C271.24 470.4 272.11 470.77 273.13 470.77C274.15 470.77 275.01 470.4 275.71 469.66C276.43 468.92 276.79 467.91 276.79 466.63ZM290.761 461.05C291.361 460.13 292.111 459.41 293.011 458.89C293.911 458.35 294.911 458.08 296.011 458.08V463.51H294.601C293.321 463.51 292.361 463.79 291.721 464.35C291.081 464.89 290.761 465.85 290.761 467.23V475H285.631V458.26H290.761V461.05ZM303.594 461.05C304.194 460.13 304.944 459.41 305.844 458.89C306.744 458.35 307.744 458.08 308.844 458.08V463.51H307.434C306.154 463.51 305.194 463.79 304.554 464.35C303.914 464.89 303.594 465.85 303.594 467.23V475H298.464V458.26H303.594V461.05ZM318.916 475.24C317.276 475.24 315.796 474.89 314.476 474.19C313.176 473.49 312.146 472.49 311.386 471.19C310.646 469.89 310.276 468.37 310.276 466.63C310.276 464.91 310.656 463.4 311.416 462.1C312.176 460.78 313.216 459.77 314.536 459.07C315.856 458.37 317.336 458.02 318.976 458.02C320.616 458.02 322.096 458.37 323.416 459.07C324.736 459.77 325.776 460.78 326.536 462.1C327.296 463.4 327.676 464.91 327.676 466.63C327.676 468.35 327.286 469.87 326.506 471.19C325.746 472.49 324.696 473.49 323.356 474.19C322.036 474.89 320.556 475.24 318.916 475.24ZM318.916 470.8C319.896 470.8 320.726 470.44 321.406 469.72C322.106 469 322.456 467.97 322.456 466.63C322.456 465.29 322.116 464.26 321.436 463.54C320.776 462.82 319.956 462.46 318.976 462.46C317.976 462.46 317.146 462.82 316.486 463.54C315.826 464.24 315.496 465.27 315.496 466.63C315.496 467.97 315.816 469 316.456 469.72C317.116 470.44 317.936 470.8 318.916 470.8ZM337.147 453.19L336.547 467.56H332.197L331.597 453.19H337.147ZM334.447 475.24C333.547 475.24 332.807 474.98 332.227 474.46C331.667 473.92 331.387 473.26 331.387 472.48C331.387 471.68 331.667 471.01 332.227 470.47C332.807 469.93 333.547 469.66 334.447 469.66C335.327 469.66 336.047 469.93 336.607 470.47C337.187 471.01 337.477 471.68 337.477 472.48C337.477 473.26 337.187 473.92 336.607 474.46C336.047 474.98 335.327 475.24 334.447 475.24Z" fill="#0C38D2"/>
<g clip-path="url(#clip1_54_65)">
<path d="M285.632 303.235C285.414 303.245 285.198 303.191 285.014 303.081C284.829 302.972 284.685 302.812 284.601 302.623C284.517 302.434 284.497 302.225 284.543 302.025C284.59 301.824 284.7 301.642 284.861 301.503L284.934 301.231C284.924 301.209 284.914 301.188 284.905 301.166C284.685 300.679 284.317 300.263 283.847 299.972C283.377 299.681 282.825 299.526 282.262 299.528C281.699 299.53 281.149 299.689 280.681 299.983C280.213 300.278 279.848 300.696 279.632 301.184C278.77 303.134 277.672 305.087 277.402 307.149C277.283 308.06 277.333 308.984 277.55 309.879C275.525 305.731 274.473 301.223 274.467 296.66C274.466 295.515 274.534 294.371 274.67 293.233C274.782 292.3 274.937 291.374 275.136 290.454C276.222 285.464 278.552 280.788 281.937 276.808C283.575 275.969 284.899 274.678 285.732 273.111C286.034 272.547 286.247 271.945 286.365 271.324C286.181 271.347 285.669 268.705 285.808 268.543C285.55 268.176 285.09 267.994 284.808 267.636C283.41 265.855 281.483 266.166 280.477 268.586C278.328 269.604 278.307 271.293 279.625 272.917C280.464 273.951 280.58 275.349 281.316 276.455C281.24 276.546 281.161 276.634 281.085 276.725C279.701 278.397 278.495 280.191 277.483 282.084C277.729 279.964 277.435 277.819 276.627 275.827C275.807 273.97 274.27 272.406 272.917 270.8C271.291 268.872 267.958 269.713 267.671 272.158C267.669 272.182 267.666 272.205 267.663 272.229C267.864 272.335 268.061 272.448 268.253 272.568C268.495 272.72 268.683 272.936 268.791 273.19C268.9 273.443 268.924 273.722 268.861 273.988C268.798 274.255 268.651 274.497 268.439 274.684C268.226 274.871 267.959 274.993 267.671 275.035L267.642 275.039C267.714 275.719 267.84 276.393 268.021 277.055C266.285 283.359 270.033 285.655 275.385 285.758C275.503 285.815 275.618 285.872 275.736 285.926C274.72 288.63 274.082 291.447 273.84 294.305C273.702 295.991 273.71 297.685 273.864 299.37L273.855 299.311C273.467 297.437 272.402 295.746 270.841 294.524C268.521 292.735 265.244 292.076 262.742 290.638C262.476 290.478 262.167 290.392 261.851 290.392C261.535 290.391 261.225 290.475 260.958 290.634C260.692 290.793 260.479 291.021 260.345 291.29C260.212 291.558 260.163 291.858 260.204 292.152C260.208 292.173 260.211 292.194 260.214 292.215C260.587 292.357 260.951 292.521 261.302 292.707C261.503 292.813 261.7 292.926 261.892 293.046C262.134 293.197 262.321 293.414 262.43 293.667C262.538 293.921 262.563 294.199 262.5 294.466C262.437 294.732 262.29 294.975 262.077 295.162C261.865 295.348 261.598 295.471 261.31 295.512L261.281 295.517C261.26 295.519 261.241 295.522 261.22 295.525C261.857 296.954 262.752 298.269 263.865 299.413C264.95 304.916 269.613 305.438 274.6 303.836H274.603C275.15 306.068 275.943 308.241 276.969 310.32H285.42C285.451 310.232 285.478 310.141 285.505 310.053C284.723 310.099 283.937 310.055 283.166 309.922C283.794 309.2 284.421 308.471 285.048 307.749C285.062 307.736 285.075 307.721 285.087 307.706C285.405 307.337 285.726 306.97 286.044 306.6L286.044 306.6C286.061 305.466 285.923 304.335 285.632 303.235Z" fill="#F2F2F2"/>
<path d="M310.943 323.797H245.073C240.587 323.797 236.283 325.471 233.111 328.45C229.938 331.429 228.155 335.469 228.155 339.682V366.155H233.463V351.547C233.463 347.334 235.245 343.294 238.418 340.315C241.591 337.336 245.894 335.663 250.381 335.663H305.635C310.122 335.663 314.425 337.336 317.598 340.315C320.771 343.294 322.553 347.334 322.553 351.547V366.155H327.861V339.682C327.861 335.469 326.078 331.429 322.905 328.45C319.733 325.471 315.43 323.797 310.943 323.797Z" fill="#F2F2F2"/>
<path d="M278.387 330.56C287.914 330.56 295.637 329.525 295.637 328.247C295.637 326.969 287.914 325.933 278.387 325.933C268.861 325.933 261.138 326.969 261.138 328.247C261.138 329.525 268.861 330.56 278.387 330.56Z" fill="#E6E6E6"/>
<path d="M291.427 328.827H268.452C262.78 323.723 258.725 318.805 261.971 314.722C261.971 313.549 262.468 312.423 263.352 311.593C264.236 310.763 265.434 310.297 266.684 310.297H293.195C294.444 310.297 295.643 310.763 296.527 311.593C297.411 312.423 297.907 313.549 297.907 314.722C299.144 319.374 296.935 324.076 291.427 328.827Z" fill="#F2F2F2"/>
<path d="M215.249 252.584C187.837 237.983 198.326 200.385 168.213 212.362C129.111 203.619 151.337 240.138 116.627 252.584C115.038 252.584 113.464 252.878 111.995 253.449C110.527 254.021 109.192 254.858 108.068 255.913C106.944 256.968 106.053 258.221 105.444 259.6C104.836 260.979 104.523 262.457 104.523 263.949C104.523 265.475 104.85 266.986 105.486 268.391C106.121 269.795 107.051 271.065 108.22 272.125C109.389 273.185 110.774 274.013 112.292 274.56C113.809 275.107 115.429 275.361 117.053 275.307L121.583 275.158V310.96H210.294V275.158L214.824 275.307C216.448 275.361 218.068 275.107 219.585 274.56C221.103 274.013 222.487 273.185 223.657 272.125C224.826 271.065 225.756 269.795 226.391 268.391C227.027 266.986 227.354 265.475 227.354 263.949C227.354 262.457 227.041 260.979 226.432 259.6C225.824 258.221 224.933 256.968 223.809 255.913C222.685 254.858 221.35 254.021 219.882 253.449C218.413 252.878 216.839 252.584 215.249 252.584Z" fill="#E6E6E6"/>
<path d="M206.787 327.689H123.953C123.023 327.689 122.131 328.036 121.473 328.654C120.815 329.271 120.446 330.109 120.446 330.983V335.786C120.446 336.66 120.815 337.497 121.473 338.115C122.131 338.733 123.023 339.08 123.953 339.08H130.302V366.844H134.852V339.08H193.992V366.844H198.542V339.08H206.787C207.717 339.08 208.609 338.733 209.267 338.115C209.925 337.497 210.294 336.66 210.294 335.786V330.983C210.294 330.109 209.925 329.272 209.267 328.654C208.609 328.036 207.717 327.689 206.787 327.689Z" fill="#E6E6E6"/>
<path d="M223.846 319.858H221.307C222.041 318.669 222.427 317.318 222.425 315.943V270.382C222.425 268.305 221.547 266.313 219.983 264.844C218.419 263.376 216.297 262.551 214.085 262.551C211.873 262.551 209.752 263.376 208.188 264.844C206.623 266.313 205.745 268.305 205.745 270.382V308.039C143.308 299.805 183.997 299.888 127.649 308.301V270.382C127.649 268.305 126.77 266.313 125.206 264.844C123.642 263.376 121.52 262.551 119.308 262.551C117.096 262.551 114.975 263.376 113.411 264.844C111.847 266.313 110.968 268.305 110.968 270.382V315.943C110.966 317.318 111.352 318.669 112.086 319.858H106.893C105.963 319.858 105.071 320.205 104.413 320.823C103.755 321.441 103.386 322.278 103.386 323.152V327.956C103.386 328.829 103.755 329.667 104.413 330.284C105.071 330.902 105.963 331.249 106.893 331.249H223.846C224.777 331.249 225.669 330.902 226.327 330.284C226.984 329.667 227.354 328.829 227.354 327.956V323.152C227.354 322.278 226.984 321.441 226.327 320.823C225.669 320.205 224.777 319.858 223.846 319.858Z" fill="#F2F2F2"/>
<path d="M106.058 273.327C107.531 273.453 108.999 273.035 110.148 272.161C111.298 271.286 112.039 270.025 112.213 268.646C112.244 268.365 112.25 268.082 112.231 267.8L146.962 251.667L138.524 242.201L105.937 263.064C104.699 263.229 103.553 263.773 102.678 264.613C101.804 265.453 101.25 266.541 101.104 267.707C100.949 269.049 101.369 270.394 102.27 271.445C103.171 272.497 104.48 273.169 105.91 273.314C105.959 273.319 106.008 273.323 106.058 273.327Z" fill="#FFB6B6"/>
<path d="M182.374 244.049C182.374 244.049 185.747 237.766 175.216 235.486C164.685 233.206 145.242 240.883 144.253 241.76C143.263 242.637 144.548 241.446 141.42 240.989C139.917 240.77 136.919 238.384 136.303 240.392C135.687 242.4 135.857 244.812 134.055 242.859C132.253 240.907 139.354 259.551 139.354 259.551C139.354 259.551 140.27 259.413 143.519 257.796C145.343 256.888 145.362 253.117 146.583 254.172C147.803 255.226 158.656 255.047 159.265 254.908C159.875 254.769 162.61 250.042 162.61 250.042L182.374 244.049Z" fill="#2F2E41"/>
<path d="M125.938 360.974L120.156 359.842L122.053 338.365L130.586 340.035L125.938 360.974Z" fill="#FFB6B6"/>
<path d="M124.884 366.677L107.104 363.198L107.151 362.987C107.534 361.263 108.629 359.753 110.198 358.789C111.766 357.824 113.678 357.484 115.514 357.843L115.514 357.843L119.275 356.165L124.821 359.664L126.374 359.968L124.884 366.677Z" fill="#2F2E41"/>
<path d="M225.489 336.08L231.244 334.832L228.856 313.398L220.362 315.239L225.489 336.08Z" fill="#FFB6B6"/>
<path d="M226.673 341.761L244.369 337.923L244.318 337.713C243.896 335.998 242.765 334.511 241.175 333.578C239.585 332.645 237.666 332.344 235.839 332.74L235.839 332.74L232.04 331.138L226.575 334.748L225.03 335.083L226.673 341.761Z" fill="#2F2E41"/>
<path d="M157.598 286.755L156.606 297.297C156.606 297.297 124.375 287.579 123.983 310.44C123.858 317.723 120.446 345.843 120.446 345.843L130.302 347.266C130.302 347.266 135.61 339.792 135.61 337.3C135.61 334.808 140.917 316.655 140.917 316.655L168.58 314.1C197.784 312.384 206.882 311.672 213.327 292.095C213.327 292.095 217.256 318.288 219.462 320.319C221.667 322.35 223.3 320.331 220.588 322.942C217.876 325.554 215.981 324.486 217.876 325.554C219.772 326.621 231.145 324.842 231.145 324.842C233.685 325.109 230.428 286.943 221.916 275.679C214.32 265.628 188.112 297.212 188.112 297.212L157.598 286.755Z" fill="#2F2E41"/>
<path d="M191.75 241.912C191.75 241.912 201.602 240.862 203.7 245.295C205.799 249.728 211.087 258.959 211.087 258.959C211.087 258.959 208.375 260.044 211.144 257.226C212.386 255.963 210.095 256.733 211.669 256.241C213.243 255.748 213.767 256.241 213.767 256.241L219.014 264.614C219.014 264.614 218.592 266.522 215.866 266.584C213.14 266.646 217.44 264.122 213.767 267.569C211.871 269.35 204.987 271.805 204.987 271.805L187.388 256.62L191.75 241.912Z" fill="#2F2E41"/>
<path d="M160.682 237.414L170.64 234.992L175.288 228.973L186.326 230.247L188.676 238.457L196.534 242.74C196.534 242.74 192.191 285.874 193.224 288.242C194.257 290.611 191.75 292.592 188.586 295.645C185.423 298.698 191.215 295.292 191.949 298.616C192.683 301.94 198.035 305.457 191.949 305.422C185.863 305.387 152.388 306.974 153.438 303.034C154.487 299.093 151.223 298.015 152.805 295.544C154.387 293.074 155.452 294.454 154.919 290.808C154.387 287.163 154.912 284.7 154.912 282.73C154.912 280.76 156.669 262.856 156.669 262.856L160.682 237.414Z" fill="#0C38D2"/>
<path d="M196.455 305.496C198.355 308.678 187.658 309.614 176.069 309.186C175.845 308.38 175.474 307.617 174.973 306.93C173.693 305.186 175.24 293.389 173.373 292.197C174.217 294.118 170.802 306.885 170.089 308.851C159.607 308.063 150.054 306.275 150.169 304.147C150.201 303.526 152.388 291.705 153.448 290.808C154.503 289.912 153.438 272.988 153.448 269.357C153.453 265.722 159.208 239.001 159.208 238.016C159.208 237.031 172.848 232.105 172.848 232.105L178.619 263.136L187.39 233.957C188.248 235.052 189.239 236.049 190.344 236.927C192.101 238.302 199.078 243.927 199.078 243.927L193.103 285.439C193.103 285.439 195.931 291.705 195.784 294.192C195.727 296.166 195.314 298.116 194.562 299.96C193.712 302.3 193.801 301.044 196.455 305.496Z" fill="#2F2E41"/>
<path d="M205.841 219.719C206.934 220.655 207.595 221.954 207.684 223.341C207.772 224.728 207.28 226.092 206.314 227.143C206.113 227.354 205.895 227.549 205.661 227.726L216.407 262.68L203.273 263.219L197.691 226.559C196.985 225.59 196.64 224.428 196.71 223.256C196.781 222.083 197.263 220.965 198.081 220.077C198.551 219.576 199.123 219.166 199.762 218.872C200.401 218.578 201.096 218.405 201.806 218.363C202.516 218.321 203.229 218.411 203.902 218.628C204.576 218.844 205.197 219.183 205.731 219.625C205.768 219.656 205.805 219.687 205.841 219.719Z" fill="#FFB6B6"/>
<path d="M201.205 260.237C201.624 259.923 214.695 255.939 214.695 255.939C214.695 255.939 220.246 263.693 216.891 266.202C213.536 268.711 206.209 269.366 206.209 269.366C206.209 269.366 203.13 267.739 203.202 265.822C203.274 263.905 201.205 260.237 201.205 260.237Z" fill="#2F2E41"/>
<path d="M193.117 224.307L194.538 214.483C194.735 213.121 195.726 212.226 196.747 212.489L199.287 213.143C200.308 213.405 200.979 214.728 200.782 216.09L199.361 225.914C199.164 227.276 198.173 228.171 197.152 227.908L194.612 227.255C193.59 226.992 192.92 225.67 193.117 224.307Z" fill="#3F3D56"/>
<path d="M193.821 223.737L195.269 214.75C195.47 213.504 196.192 212.713 196.88 212.987L198.589 213.668C199.276 213.942 199.672 215.179 199.471 216.425L198.023 225.412C197.823 226.658 197.1 227.449 196.413 227.175L194.703 226.494C194.016 226.22 193.62 224.983 193.821 223.737Z" fill="#0C38D2"/>
<path d="M166.805 214.402C167.792 221.883 173.313 228.051 181.342 228.051C183.251 228.051 185.141 227.698 186.905 227.012C188.669 226.326 190.271 225.321 191.621 224.054C192.971 222.786 194.042 221.281 194.772 219.625C195.503 217.97 195.879 216.195 195.879 214.402C195.879 206.864 189.336 201.45 181.342 200.753C172.86 200.014 165.537 204.798 166.805 214.402Z" fill="#2F2E41"/>
<path d="M182.949 228.862C190.068 228.862 195.84 223.443 195.84 216.758C195.84 210.074 190.068 204.655 182.949 204.655C175.829 204.655 170.058 210.074 170.058 216.758C170.058 223.443 175.829 228.862 182.949 228.862Z" fill="#FFB6B6"/>
<path d="M169.6 218.077C170.009 220.707 172.396 224.377 171.837 224.377C171.278 224.377 167.302 213.534 171.278 212.827C174.161 212.315 174.806 212.764 177.501 211.667L177.121 212.003C178.904 213.221 181.387 212.47 183.422 211.678C185.463 210.89 187.94 210.14 189.729 211.352C190.853 212.113 191.328 213.436 192.027 214.56C192.726 215.688 194.017 216.754 195.348 216.408C196.416 216.129 197.031 215.006 197.025 213.967C197.02 212.927 195.578 211.938 196.064 211.006C197.502 208.242 196.208 206.358 193.072 205.058C191.932 204.895 190.791 204.729 189.65 204.559C190.248 203.782 190.973 203.098 191.798 202.533C191.373 201.719 190.886 200.9 190.064 200.449C189.153 199.94 188.023 199.976 186.967 200.029C184.607 200.144 182.25 200.26 179.894 200.375C178.149 200.459 176.343 200.559 174.783 201.31C172.838 202.249 171.563 204.081 170.635 205.945C168.555 210.134 168.885 213.505 169.6 218.077Z" fill="#2F2E41"/>
<path d="M34 366.576C33.9998 366.632 34.0114 366.687 34.034 366.739C34.0566 366.79 34.0898 366.837 34.1318 366.876C34.1737 366.916 34.2235 366.947 34.2783 366.968C34.3331 366.989 34.3919 367 34.4512 367H379.549C379.669 367 379.783 366.955 379.868 366.876C379.952 366.796 380 366.689 380 366.576C380 366.464 379.952 366.356 379.868 366.277C379.783 366.197 379.669 366.153 379.549 366.153H34.4512C34.3919 366.153 34.3331 366.163 34.2783 366.185C34.2235 366.206 34.1737 366.237 34.1318 366.277C34.0898 366.316 34.0566 366.363 34.034 366.414C34.0114 366.466 33.9998 366.521 34 366.576Z" fill="#CCCCCC"/>
</g>
<path d="M318 26.6998C320.612 26.7 323.124 27.7094 325.017 29.5194C325.159 29.6592 325.387 29.6574 325.527 29.5155L326.89 28.1324C326.961 28.0604 327.001 27.9629 327 27.8614C326.999 27.7599 326.959 27.6629 326.887 27.5917C321.919 22.8028 314.081 22.8028 309.113 27.5917C309.042 27.6628 309.001 27.7599 309 27.8613C308.999 27.9628 309.039 28.0603 309.11 28.1324L310.473 29.5155C310.613 29.6576 310.841 29.6594 310.984 29.5194C312.877 27.7092 315.389 26.6998 318 26.6998ZM318 31.1997C319.435 31.1996 320.819 31.7361 321.883 32.7049C322.027 32.8424 322.253 32.8395 322.394 32.6982L323.754 31.3151C323.826 31.2426 323.866 31.1441 323.865 31.0419C323.864 30.9396 323.822 30.842 323.749 30.7709C320.51 27.7403 315.494 27.7403 312.255 30.7709C312.182 30.842 312.14 30.9396 312.139 31.0419C312.138 31.1442 312.178 31.2427 312.25 31.3151L313.61 32.6982C313.75 32.8395 313.977 32.8424 314.121 32.7049C315.184 31.7368 316.567 31.2003 318 31.1997ZM320.616 34.5006C320.689 34.4288 320.729 34.3299 320.727 34.2273C320.725 34.1248 320.68 34.0276 320.605 33.9588C319.101 32.6798 316.9 32.6798 315.396 33.9588C315.32 34.0276 315.276 34.1247 315.274 34.2272C315.272 34.3298 315.312 34.4287 315.385 34.5006L317.739 36.8902C317.808 36.9605 317.902 37 318 37C318.099 37 318.193 36.9605 318.262 36.8902L320.616 34.5006Z" fill="black"/>
<path d="M333.923 27.2051C333.923 26.4971 334.497 25.9231 335.205 25.9231H352.833C353.541 25.9231 354.115 26.4971 354.115 27.2051V33.2949C354.115 34.0029 353.541 34.5769 352.833 34.5769H335.205C334.497 34.5769 333.923 34.0029 333.923 33.2949V27.2051Z" fill="black"/>
<path opacity="0.4" fill-rule="evenodd" clip-rule="evenodd" d="M335.205 24.9615H352.833C354.072 24.9615 355.077 25.966 355.077 27.2051V33.2949C355.077 34.534 354.072 35.5385 352.833 35.5385H335.205C333.966 35.5385 332.962 34.534 332.962 33.2949V27.2051C332.962 25.966 333.966 24.9615 335.205 24.9615ZM332 27.2051C332 25.435 333.435 24 335.205 24H352.833C354.603 24 356.038 25.435 356.038 27.2051V33.2949C356.038 35.065 354.603 36.5 352.833 36.5H335.205C333.435 36.5 332 35.065 332 33.2949V27.2051ZM358.603 30.25C358.603 31.2351 357.919 32.0605 357 32.2776V28.2224C357.919 28.4395 358.603 29.2649 358.603 30.25Z" fill="black"/>
<path fill-rule="evenodd" clip-rule="evenodd" d="M300.85 25C300.298 25 299.85 25.4477 299.85 26V35C299.85 35.5523 300.298 36 300.85 36H302.15C302.702 36 303.15 35.5523 303.15 35V26C303.15 25.4477 302.702 25 302.15 25H300.85ZM294.9 28.1999C294.9 27.6476 295.348 27.1999 295.9 27.1999H297.2C297.752 27.1999 298.2 27.6476 298.2 28.1999V34.9999C298.2 35.5522 297.752 35.9999 297.2 35.9999H295.9C295.348 35.9999 294.9 35.5522 294.9 34.9999V28.1999ZM290.95 29.4C290.398 29.4 289.95 29.8478 289.95 30.4V35C289.95 35.5523 290.398 36 290.95 36H292.25C292.802 36 293.25 35.5523 293.25 35V30.4C293.25 29.8478 292.802 29.4 292.25 29.4H290.95ZM286.1 36C285.492 36 285 35.5075 285 34.9V32.15C285 31.5425 285.492 31.05 286.1 31.05H287.2C287.808 31.05 288.3 31.5425 288.3 32.15V34.9C288.3 35.5075 287.808 36 287.2 36H286.1Z" fill="black"/>
<path d="M47.3499 37H49.5735V24.3174H47.3323L44.0188 26.6465V28.7295L47.2971 26.4795H47.3499V37ZM56.86 24.0977C54.1266 24.0977 52.1139 25.9346 52.1139 28.4922V28.5098C52.1139 30.8916 53.8366 32.6494 56.2799 32.6494C57.9938 32.6494 59.2594 31.7705 59.7604 30.6104H59.8131C59.8131 30.751 59.8043 30.8828 59.7955 31.0146C59.7077 33.4141 58.8551 35.3652 56.8161 35.3652C55.6823 35.3652 54.9088 34.8027 54.5661 33.9326L54.5397 33.8535H52.2897L52.3073 33.9502C52.7028 35.8662 54.4606 37.2197 56.8073 37.2197C60.0416 37.2197 61.984 34.7148 61.984 30.5225V30.5049C61.984 26.0576 59.6549 24.0977 56.86 24.0977ZM56.86 30.9004C55.4186 30.9004 54.3463 29.8721 54.3463 28.4307V28.4131C54.3463 27.042 55.4801 25.9521 56.8864 25.9521C58.3102 25.9521 59.4176 27.0508 59.4176 28.457V28.4658C59.4176 29.8809 58.3102 30.9004 56.86 30.9004ZM64.4541 28.7031C65.166 28.7031 65.7197 28.1406 65.7197 27.4287C65.7197 26.7168 65.166 26.1631 64.4541 26.1631C63.7422 26.1631 63.1797 26.7168 63.1797 27.4287C63.1797 28.1406 63.7422 28.7031 64.4541 28.7031ZM64.4541 35.1543C65.166 35.1543 65.7197 34.5918 65.7197 33.8799C65.7197 33.168 65.166 32.6143 64.4541 32.6143C63.7422 32.6143 63.1797 33.168 63.1797 33.8799C63.1797 34.5918 63.7422 35.1543 64.4541 35.1543ZM71.9164 37.2197C75.0189 37.2197 76.8998 34.6973 76.8998 30.6631V30.6455C76.8998 26.6113 75.0189 24.0977 71.9164 24.0977C68.805 24.0977 66.933 26.6113 66.933 30.6455V30.6631C66.933 34.6973 68.805 37.2197 71.9164 37.2197ZM71.9164 35.3652C70.2025 35.3652 69.2181 33.5898 69.2181 30.6631V30.6455C69.2181 27.7188 70.2025 25.9609 71.9164 25.9609C73.6214 25.9609 74.6146 27.7188 74.6146 30.6455V30.6631C74.6146 33.5898 73.6214 35.3652 71.9164 35.3652ZM78.113 37H87.0251V35.1455H81.1101V35.0488L83.905 32.3945C86.1374 30.25 86.8318 29.2393 86.8318 27.7451V27.7275C86.8318 25.6357 85.0564 24.0977 82.5163 24.0977C79.9411 24.0977 77.99 25.7588 77.99 28.0791V28.1406H80.1169V28.0791C80.1433 26.8574 81.1277 25.917 82.5339 25.917C83.7556 25.917 84.6081 26.7256 84.6169 27.8594V27.877C84.6169 28.8174 84.2566 29.459 82.5954 31.085L78.113 35.4531V37Z" fill="black"/>
<rect x="60" y="743" width="269" height="51" rx="24" fill="#0C38D2"/>
<path d="M156.981 777.288C155.773 777.288 154.653 776.964 153.621 776.316C152.589 775.66 151.757 774.664 151.125 773.328C150.501 771.992 150.189 770.352 150.189 768.408C150.189 766.64 150.501 765.124 151.125 763.86C151.749 762.588 152.593 761.624 153.657 760.968C154.729 760.312 155.925 759.984 157.245 759.984C158.053 759.984 158.737 760.064 159.297 760.224C159.857 760.376 160.297 760.556 160.617 760.764C160.937 760.964 161.245 761.2 161.541 761.472L160.197 763.992C159.917 763.688 159.669 763.456 159.453 763.296C159.237 763.128 158.961 762.996 158.625 762.9C158.297 762.796 157.877 762.744 157.365 762.744C156.565 762.744 155.877 762.98 155.301 763.452C154.725 763.916 154.285 764.564 153.981 765.396C153.677 766.22 153.525 767.168 153.525 768.24C153.525 769.584 153.681 770.732 153.993 771.684C154.313 772.636 154.741 773.352 155.277 773.832C155.821 774.312 156.429 774.552 157.101 774.552C157.813 774.552 158.441 774.452 158.985 774.252C159.537 774.052 159.957 773.8 160.245 773.496L161.565 775.872C161.077 776.272 160.485 776.608 159.789 776.88C159.101 777.152 158.165 777.288 156.981 777.288ZM168.485 777.24C167.317 777.24 166.321 776.992 165.497 776.496C164.673 776 164.045 775.288 163.613 774.36C163.181 773.424 162.965 772.304 162.965 771C162.965 769.696 163.185 768.576 163.625 767.64C164.073 766.704 164.717 765.992 165.557 765.504C166.405 765.008 167.413 764.76 168.581 764.76C169.741 764.76 170.725 765.016 171.533 765.528C172.349 766.032 172.965 766.752 173.381 767.688C173.797 768.624 174.005 769.728 174.005 771C174.005 772.264 173.789 773.368 173.357 774.312C172.925 775.248 172.293 775.972 171.461 776.484C170.637 776.988 169.645 777.24 168.485 777.24ZM168.533 774.84C169.277 774.84 169.841 774.516 170.225 773.868C170.617 773.22 170.813 772.264 170.813 771C170.813 769.728 170.617 768.768 170.225 768.12C169.841 767.464 169.277 767.136 168.533 767.136C167.749 767.136 167.157 767.444 166.757 768.06C166.357 768.676 166.157 769.656 166.157 771C166.157 772.344 166.357 773.32 166.757 773.928C167.157 774.536 167.749 774.84 168.533 774.84ZM190.084 764.76C191.26 764.76 192.148 765.14 192.748 765.9C193.356 766.652 193.66 767.72 193.66 769.104V777H190.612V769.416C190.612 768.72 190.476 768.176 190.204 767.784C189.94 767.384 189.532 767.184 188.98 767.184C188.604 767.184 188.244 767.28 187.9 767.472C187.564 767.664 187.292 767.932 187.084 768.276C186.876 768.612 186.772 768.992 186.772 769.416V777H183.7V769.416C183.7 768.736 183.548 768.188 183.244 767.772C182.948 767.348 182.524 767.136 181.972 767.136C181.588 767.136 181.236 767.236 180.916 767.436C180.596 767.628 180.34 767.9 180.148 768.252C179.956 768.596 179.86 768.984 179.86 769.416V777H176.788V765.048H179.548L179.62 766.632C180.428 765.384 181.604 764.76 183.148 764.76C183.948 764.76 184.616 764.936 185.152 765.288C185.696 765.64 186.104 766.152 186.376 766.824C187.192 765.448 188.428 764.76 190.084 764.76ZM201.956 777.312C200.668 777.312 199.604 777.04 198.764 776.496C197.924 775.944 197.308 775.208 196.916 774.288C196.532 773.368 196.34 772.328 196.34 771.168C196.34 769.984 196.556 768.908 196.988 767.94C197.428 766.964 198.068 766.192 198.908 765.624C199.748 765.048 200.748 764.76 201.908 764.76C203.636 764.76 204.872 765.26 205.616 766.26C206.36 767.252 206.732 768.736 206.732 770.712C206.732 771.096 206.716 771.528 206.684 772.008H199.484C199.532 772.976 199.8 773.724 200.288 774.252C200.784 774.772 201.508 775.032 202.46 775.032C202.956 775.032 203.488 774.924 204.056 774.708C204.624 774.484 205.044 774.216 205.316 773.904L206.276 776.184C205.148 776.936 203.708 777.312 201.956 777.312ZM203.684 770.136C203.684 768.96 203.536 768.152 203.24 767.712C202.952 767.264 202.532 767.04 201.98 767.04C201.204 767.04 200.6 767.328 200.168 767.904C199.744 768.48 199.508 769.224 199.46 770.136H203.684ZM218.025 775.944C217.761 776.216 217.353 776.484 216.801 776.748C216.249 777.012 215.617 777.18 214.905 777.252L214.617 778.368C215.073 778.368 215.493 778.48 215.877 778.704C216.261 778.928 216.561 779.224 216.777 779.592C217.001 779.96 217.113 780.352 217.113 780.768C217.113 781.832 216.769 782.552 216.081 782.928C215.401 783.312 214.489 783.504 213.345 783.504C212.905 783.504 212.461 783.404 212.013 783.204C211.573 783.004 211.241 782.8 211.017 782.592L211.521 781.104C211.857 781.28 212.157 781.408 212.421 781.488C212.685 781.568 212.945 781.608 213.201 781.608C213.625 781.608 213.969 781.5 214.233 781.284C214.505 781.068 214.641 780.816 214.641 780.528C214.641 780.12 214.485 779.828 214.173 779.652C213.869 779.484 213.489 779.4 213.033 779.4C212.905 779.4 212.769 779.408 212.625 779.424C212.481 779.448 212.377 779.464 212.313 779.472L212.805 777.132C211.909 776.924 211.161 776.528 210.561 775.944C209.969 775.36 209.529 774.652 209.241 773.82C208.953 772.98 208.809 772.064 208.809 771.072C208.809 769.936 209.025 768.888 209.457 767.928C209.889 766.968 210.529 766.2 211.377 765.624C212.225 765.048 213.241 764.76 214.425 764.76C215.161 764.76 215.801 764.84 216.345 765C216.897 765.152 217.425 765.432 217.929 765.84L216.945 768.384C216.713 768.04 216.369 767.768 215.913 767.568C215.465 767.36 215.025 767.256 214.593 767.256C212.849 767.256 211.977 768.52 211.977 771.048C211.977 772.368 212.189 773.332 212.613 773.94C213.045 774.54 213.705 774.84 214.593 774.84C215.129 774.84 215.617 774.74 216.057 774.54C216.505 774.34 216.857 774.096 217.113 773.808L218.025 775.944ZM222.781 777.336C222.069 777.336 221.469 777.176 220.981 776.856C220.493 776.536 220.125 776.104 219.877 775.56C219.637 775.016 219.517 774.408 219.517 773.736C219.517 773.152 219.709 772.572 220.093 771.996C220.485 771.412 221.177 770.916 222.169 770.508C223.161 770.1 224.501 769.896 226.189 769.896V769.344C226.189 768.688 226.029 768.18 225.709 767.82C225.397 767.46 224.845 767.28 224.053 767.28C223.429 767.28 222.817 767.388 222.217 767.604C221.625 767.812 221.189 768.072 220.909 768.384L219.949 766.08C220.493 765.712 221.169 765.4 221.977 765.144C222.785 764.888 223.645 764.76 224.557 764.76C225.701 764.76 226.605 764.936 227.269 765.288C227.941 765.64 228.413 766.136 228.685 766.776C228.957 767.416 229.093 768.208 229.093 769.152V777H226.525L226.309 775.296C225.885 775.984 225.381 776.496 224.797 776.832C224.221 777.168 223.549 777.336 222.781 777.336ZM224.053 775.032C224.421 775.032 224.809 774.884 225.217 774.588C225.625 774.292 225.949 773.92 226.189 773.472V771.768C226.077 771.752 225.885 771.744 225.613 771.744C224.805 771.744 224.081 771.88 223.441 772.152C222.809 772.416 222.493 772.848 222.493 773.448C222.493 774.016 222.617 774.424 222.865 774.672C223.121 774.912 223.517 775.032 224.053 775.032ZM232.191 765.048H234.903L235.047 767.16C235.303 766.544 235.707 766.016 236.259 765.576C236.811 765.128 237.591 764.904 238.599 764.904C238.999 764.904 239.367 764.968 239.703 765.096L239.031 768.24C238.895 768.104 238.731 768.008 238.539 767.952C238.355 767.888 238.127 767.856 237.855 767.856C237.295 767.856 236.811 767.976 236.403 768.216C236.003 768.448 235.699 768.72 235.491 769.032C235.291 769.344 235.191 769.6 235.191 769.8V777H232.191V765.048Z" fill="white"/>
<path d="M119.177 115.304H112.785C112.699 114.648 112.525 114.055 112.261 113.527C111.996 112.999 111.647 112.547 111.212 112.172C110.778 111.797 110.262 111.511 109.665 111.315C109.077 111.111 108.425 111.009 107.709 111.009C106.439 111.009 105.344 111.32 104.424 111.942C103.512 112.564 102.809 113.463 102.314 114.639C101.829 115.815 101.586 117.239 101.586 118.909C101.586 120.648 101.833 122.105 102.327 123.281C102.83 124.449 103.533 125.331 104.437 125.928C105.349 126.516 106.427 126.81 107.671 126.81C108.37 126.81 109.005 126.72 109.576 126.541C110.155 126.362 110.662 126.102 111.097 125.761C111.54 125.412 111.903 124.99 112.184 124.496C112.474 123.993 112.674 123.426 112.785 122.795L119.177 122.834C119.066 123.993 118.729 125.135 118.167 126.26C117.613 127.385 116.85 128.412 115.878 129.341C114.907 130.261 113.722 130.994 112.324 131.54C110.935 132.085 109.341 132.358 107.543 132.358C105.174 132.358 103.052 131.838 101.177 130.798C99.3102 129.75 97.8358 128.224 96.7534 126.222C95.671 124.219 95.1298 121.781 95.1298 118.909C95.1298 116.028 95.6795 113.587 96.779 111.584C97.8784 109.581 99.3656 108.06 101.241 107.02C103.116 105.98 105.216 105.46 107.543 105.46C109.128 105.46 110.594 105.682 111.941 106.125C113.287 106.56 114.472 107.199 115.495 108.043C116.518 108.878 117.349 109.905 117.988 111.124C118.627 112.342 119.023 113.736 119.177 115.304ZM127.613 132.332C126.36 132.332 125.248 132.124 124.277 131.706C123.314 131.28 122.551 130.641 121.988 129.788C121.434 128.928 121.157 127.849 121.157 126.554C121.157 125.463 121.349 124.543 121.733 123.793C122.116 123.043 122.645 122.433 123.318 121.964C123.991 121.496 124.767 121.142 125.645 120.903C126.522 120.656 127.46 120.49 128.457 120.405C129.574 120.303 130.473 120.196 131.154 120.085C131.836 119.966 132.331 119.8 132.637 119.587C132.953 119.365 133.11 119.054 133.11 118.653V118.589C133.11 117.933 132.885 117.426 132.433 117.068C131.981 116.71 131.372 116.531 130.605 116.531C129.778 116.531 129.113 116.71 128.61 117.068C128.108 117.426 127.788 117.92 127.652 118.551L121.886 118.347C122.056 117.153 122.495 116.088 123.203 115.151C123.919 114.205 124.899 113.463 126.143 112.926C127.396 112.381 128.9 112.108 130.656 112.108C131.909 112.108 133.064 112.257 134.12 112.555C135.177 112.845 136.098 113.271 136.882 113.834C137.666 114.388 138.271 115.07 138.697 115.879C139.132 116.689 139.349 117.614 139.349 118.653V132H133.468V129.264H133.315C132.966 129.929 132.518 130.491 131.973 130.952C131.436 131.412 130.801 131.757 130.068 131.987C129.343 132.217 128.525 132.332 127.613 132.332ZM129.544 128.241C130.217 128.241 130.822 128.105 131.359 127.832C131.904 127.56 132.339 127.185 132.663 126.707C132.987 126.222 133.149 125.659 133.149 125.02V123.153C132.97 123.247 132.753 123.332 132.497 123.409C132.25 123.486 131.977 123.558 131.679 123.626C131.38 123.695 131.074 123.754 130.758 123.805C130.443 123.857 130.14 123.903 129.851 123.946C129.262 124.04 128.76 124.185 128.342 124.381C127.933 124.577 127.618 124.832 127.396 125.148C127.183 125.455 127.076 125.821 127.076 126.247C127.076 126.895 127.306 127.389 127.767 127.73C128.235 128.071 128.828 128.241 129.544 128.241ZM142.452 132V112.364H148.524V115.943H148.729C149.086 114.648 149.67 113.685 150.48 113.054C151.29 112.415 152.231 112.095 153.305 112.095C153.595 112.095 153.893 112.116 154.2 112.159C154.507 112.193 154.792 112.249 155.057 112.325V117.759C154.758 117.656 154.366 117.575 153.881 117.516C153.403 117.456 152.977 117.426 152.602 117.426C151.861 117.426 151.192 117.592 150.595 117.925C150.007 118.249 149.542 118.705 149.202 119.293C148.869 119.872 148.703 120.554 148.703 121.338V132H142.452ZM163.161 132L155.542 105.818H162.534L166.485 122.974H166.702L171.215 105.818H176.917L181.429 123.013H181.647L185.61 105.818H192.59L184.983 132H178.885L174.168 116.122H173.963L169.246 132H163.161ZM197.84 132.332C196.587 132.332 195.475 132.124 194.503 131.706C193.54 131.28 192.778 130.641 192.215 129.788C191.661 128.928 191.384 127.849 191.384 126.554C191.384 125.463 191.576 124.543 191.959 123.793C192.343 123.043 192.871 122.433 193.545 121.964C194.218 121.496 194.993 121.142 195.871 120.903C196.749 120.656 197.687 120.49 198.684 120.405C199.8 120.303 200.699 120.196 201.381 120.085C202.063 119.966 202.557 119.8 202.864 119.587C203.18 119.365 203.337 119.054 203.337 118.653V118.589C203.337 117.933 203.111 117.426 202.66 117.068C202.208 116.71 201.599 116.531 200.831 116.531C200.005 116.531 199.34 116.71 198.837 117.068C198.334 117.426 198.015 117.92 197.878 118.551L192.113 118.347C192.283 117.153 192.722 116.088 193.43 115.151C194.145 114.205 195.126 113.463 196.37 112.926C197.623 112.381 199.127 112.108 200.883 112.108C202.135 112.108 203.29 112.257 204.347 112.555C205.404 112.845 206.324 113.271 207.108 113.834C207.893 114.388 208.498 115.07 208.924 115.879C209.358 116.689 209.576 117.614 209.576 118.653V132H203.695V129.264H203.542C203.192 129.929 202.745 130.491 202.199 130.952C201.662 131.412 201.028 131.757 200.295 131.987C199.57 132.217 198.752 132.332 197.84 132.332ZM199.77 128.241C200.444 128.241 201.049 128.105 201.586 127.832C202.131 127.56 202.566 127.185 202.89 126.707C203.214 126.222 203.376 125.659 203.376 125.02V123.153C203.197 123.247 202.979 123.332 202.724 123.409C202.476 123.486 202.204 123.558 201.905 123.626C201.607 123.695 201.3 123.754 200.985 123.805C200.67 123.857 200.367 123.903 200.077 123.946C199.489 124.04 198.986 124.185 198.569 124.381C198.16 124.577 197.844 124.832 197.623 125.148C197.41 125.455 197.303 125.821 197.303 126.247C197.303 126.895 197.533 127.389 197.993 127.73C198.462 128.071 199.055 128.241 199.77 128.241ZM229.822 118.359L224.082 118.513C224.022 118.104 223.86 117.741 223.596 117.426C223.332 117.102 222.986 116.851 222.56 116.672C222.143 116.484 221.657 116.391 221.103 116.391C220.379 116.391 219.761 116.536 219.249 116.825C218.746 117.115 218.499 117.507 218.508 118.001C218.499 118.385 218.653 118.717 218.968 118.999C219.292 119.28 219.867 119.506 220.694 119.676L224.478 120.392C226.438 120.767 227.896 121.389 228.85 122.259C229.813 123.128 230.299 124.278 230.308 125.71C230.299 127.057 229.898 128.229 229.106 129.226C228.322 130.223 227.248 130.999 225.884 131.553C224.521 132.098 222.961 132.371 221.205 132.371C218.401 132.371 216.19 131.795 214.57 130.645C212.96 129.486 212.039 127.935 211.809 125.991L217.984 125.838C218.12 126.554 218.474 127.099 219.045 127.474C219.616 127.849 220.344 128.037 221.231 128.037C222.032 128.037 222.684 127.888 223.187 127.589C223.69 127.291 223.945 126.895 223.954 126.401C223.945 125.957 223.749 125.604 223.366 125.339C222.982 125.067 222.381 124.854 221.563 124.7L218.137 124.048C216.168 123.69 214.702 123.03 213.739 122.067C212.776 121.095 212.299 119.859 212.308 118.359C212.299 117.047 212.648 115.926 213.356 114.997C214.063 114.06 215.069 113.344 216.373 112.849C217.677 112.355 219.215 112.108 220.988 112.108C223.647 112.108 225.744 112.666 227.278 113.783C228.812 114.891 229.66 116.416 229.822 118.359ZM238.917 120.801V132H232.665V105.818H238.712V115.969H238.929C239.373 114.759 240.097 113.812 241.103 113.131C242.117 112.449 243.357 112.108 244.823 112.108C246.204 112.108 247.405 112.415 248.428 113.028C249.451 113.634 250.243 114.49 250.806 115.598C251.377 116.706 251.658 118.001 251.65 119.484V132H245.398V120.712C245.407 119.621 245.134 118.768 244.58 118.155C244.026 117.541 243.246 117.234 242.241 117.234C241.584 117.234 241.005 117.379 240.502 117.669C240.008 117.95 239.62 118.355 239.339 118.884C239.066 119.412 238.925 120.051 238.917 120.801Z" fill="white"/>
</g>
</g>
<defs>
<filter id="filter0_d_54_65" x="0" y="0" width="389" height="852" filterUnits="userSpaceOnUse" color-interpolation-filters="sRGB">
<feFlood flood-opacity="0" result="BackgroundImageFix"/>
<feColorMatrix in="SourceAlpha" type="matrix" values="0 0 0 0 0 0 0 0 0 0 0 0 0 0 0 0 0 0 127 0" result="hardAlpha"/>
<feOffset dy="4"/>
<feGaussianBlur stdDeviation="2"/>
<feComposite in2="hardAlpha" operator="out"/>
<feColorMatrix type="matrix" values="0 0 0 0 0 0 0 0 0 0 0 0 0 0 0 0 0 0 0.25 0"/>
<feBlend mode="normal" in2="BackgroundImageFix" result="effect1_dropShadow_54_65"/>
<feBlend mode="normal" in="SourceGraphic" in2="effect1_dropShadow_54_65" result="shape"/>
</filter>
<clipPath id="clip0_54_65">
<rect x="4" width="381" height="844" rx="24" fill="white"/>
</clipPath>
<clipPath id="clip1_54_65">
<rect width="346" height="167" fill="white" transform="translate(34 200)"/>
</clipPath>
</defs>
</svg>
